<?xml version="1.0" encoding="UTF-8" standalone="no"?><svg xmlns="http://www.w3.org/2000/svg" xmlns:xlink="http://www.w3.org/1999/xlink" clip-rule="evenodd" stroke-miterlimit="10" viewBox="0 0 1024 768"><desc>SVG generated by Keynote</desc><defs></defs><g transform="matrix(1.00, 0.00, -0.00, -1.00, 0.0, 768.0)"><path d="M 0.0 768.0 L 1024.0 768.0 L 1024.0 0.0 L 0.0 0.0 Z M 0.0 768.0 " fill="#DCDDE0"></path><text xml:space="preserve" font-family="Menlo-Regular,Menlo" font-size="68.0" fill="#000000" transform="matrix(1.00, 0.00, -0.00, -1.00, 164.0, 664.0)">П</text><text xml:space="preserve" font-family="Menlo-Regular,Menlo" font-size="68.0" fill="#000000" transform="matrix(1.00, 0.00, -0.00, -1.00, 205.0, 664.0)">л</text><text xml:space="preserve" font-family="Menlo-Regular,Menlo" font-size="68.0" fill="#000000" transform="matrix(1.00, 0.00, -0.00, -1.00, 245.9, 664.0)">а</text><text xml:space="preserve" font-family="Menlo-Regular,Menlo" font-size="68.0" fill="#000000" transform="matrix(1.00, 0.00, -0.00, -1.00, 286.9, 664.0)">г</text><text xml:space="preserve" font-family="Menlo-Regular,Menlo" font-size="68.0" fill="#000000" transform="matrix(1.00, 0.00, -0.00, -1.00, 327.8, 664.0)">и</text><text xml:space="preserve" font-family="Menlo-Regular,Menlo" font-size="68.0" fill="#000000" transform="matrix(1.00, 0.00, -0.00, -1.00, 368.7, 664.0)">н</text><text xml:space="preserve" font-family="Menlo-Regular,Menlo" font-size="68.0" fill="#000000" transform="matrix(1.00, 0.00, -0.00, -1.00, 409.7, 664.0)"> </text><text xml:space="preserve" font-family="Menlo-Regular,Menlo" font-size="68.0" fill="#000000" transform="matrix(1.00, 0.00, -0.00, -1.00, 450.6, 664.0)">с</text><text xml:space="preserve" font-family="Menlo-Regular,Menlo" font-size="68.0" fill="#000000" transform="matrix(1.00, 0.00, -0.00, -1.00, 491.6, 664.0)">о</text><text xml:space="preserve" font-family="Menlo-Regular,Menlo" font-size="68.0" fill="#000000" transform="matrix(1.00, 0.00, -0.00, -1.00, 532.5, 664.0)">з</text><text xml:space="preserve" font-family="Menlo-Regular,Menlo" font-size="68.0" fill="#000000" transform="matrix(1.00, 0.00, -0.00, -1.00, 573.5, 664.0)">д</text><text xml:space="preserve" font-family="Menlo-Regular,Menlo" font-size="68.0" fill="#000000" transform="matrix(1.00, 0.00, -0.00, -1.00, 614.4, 664.0)">а</text><text xml:space="preserve" font-family="Menlo-Regular,Menlo" font-size="68.0" fill="#000000" transform="matrix(1.00, 0.00, -0.00, -1.00, 655.4, 664.0)">н</text><text xml:space="preserve" font-family="Menlo-Regular,Menlo" font-size="68.0" fill="#000000" transform="matrix(1.00, 0.00, -0.00, -1.00, 696.3, 664.0)">и</text><text xml:space="preserve" font-family="Menlo-Regular,Menlo" font-size="68.0" fill="#000000" transform="matrix(1.00, 0.00, -0.00, -1.00, 737.3, 664.0)">я</text><text xml:space="preserve" font-family="Menlo-Regular,Menlo" font-size="68.0" fill="#000000" transform="matrix(1.00, 0.00, -0.00, -1.00, 778.2, 664.0)"> </text><text xml:space="preserve" font-family="Menlo-Regular,Menlo" font-size="68.0" fill="#000000" transform="matrix(1.00, 0.00, -0.00, -1.00, 819.2, 664.0)">и</text><text xml:space="preserve" font-family="Menlo-Regular,Menlo" font-size="68.0" fill="#000000" transform="matrix(1.00, 0.00, -0.00, -1.00, 860.1, 664.0)"> </text><text xml:space="preserve" font-family="Menlo-Regular,Menlo" font-size="68.0" fill="#000000" transform="matrix(1.00, 0.00, -0.00, -1.00, 82.1, 585.0)">п</text><text xml:space="preserve" font-family="Menlo-Regular,Menlo" font-size="68.0" fill="#000000" transform="matrix(1.00, 0.00, -0.00, -1.00, 123.1, 585.0)">о</text><text xml:space="preserve" font-family="Menlo-Regular,Menlo" font-size="68.0" fill="#000000" transform="matrix(1.00, 0.00, -0.00, -1.00, 164.0, 585.0)">к</text><text xml:space="preserve" font-family="Menlo-Regular,Menlo" font-size="68.0" fill="#000000" transform="matrix(1.00, 0.00, -0.00, -1.00, 205.0, 585.0)">а</text><text xml:space="preserve" font-family="Menlo-Regular,Menlo" font-size="68.0" fill="#000000" transform="matrix(1.00, 0.00, -0.00, -1.00, 245.9, 585.0)">з</text><text xml:space="preserve" font-family="Menlo-Regular,Menlo" font-size="68.0" fill="#000000" transform="matrix(1.00, 0.00, -0.00, -1.00, 286.9, 585.0)">а</text><text xml:space="preserve" font-family="Menlo-Regular,Menlo" font-size="68.0" fill="#000000" transform="matrix(1.00, 0.00, -0.00, -1.00, 327.8, 585.0)"> </text><text xml:space="preserve" font-family="Menlo-Regular,Menlo" font-size="68.0" fill="#000000" transform="matrix(1.00, 0.00, -0.00, -1.00, 368.8, 585.0)">с</text><text xml:space="preserve" font-family="Menlo-Regular,Menlo" font-size="68.0" fill="#000000" transform="matrix(1.00, 0.00, -0.00, -1.00, 409.7, 585.0)">п</text><text xml:space="preserve" font-family="Menlo-Regular,Menlo" font-size="68.0" fill="#000000" transform="matrix(1.00, 0.00, -0.00, -1.00, 450.7, 585.0)">р</text><text xml:space="preserve" font-family="Menlo-Regular,Menlo" font-size="68.0" fill="#000000" transform="matrix(1.00, 0.00, -0.00, -1.00, 491.6, 585.0)">а</text><text xml:space="preserve" font-family="Menlo-Regular,Menlo" font-size="68.0" fill="#000000" transform="matrix(1.00, 0.00, -0.00, -1.00, 532.5, 585.0)">в</text><text xml:space="preserve" font-family="Menlo-Regular,Menlo" font-size="68.0" fill="#000000" transform="matrix(1.00, 0.00, -0.00, -1.00, 573.5, 585.0)">к</text><text xml:space="preserve" font-family="Menlo-Regular,Menlo" font-size="68.0" fill="#000000" transform="matrix(1.00, 0.00, -0.00, -1.00, 614.4, 585.0)">и</text><text xml:space="preserve" font-family="Menlo-Regular,Menlo" font-size="68.0" fill="#000000" transform="matrix(1.00, 0.00, -0.00, -1.00, 655.4, 585.0)"> </text><text xml:space="preserve" font-family="Menlo-Regular,Menlo" font-size="68.0" fill="#000000" transform="matrix(1.00, 0.00, -0.00, -1.00, 696.3, 585.0)">(</text><text xml:space="preserve" font-family="Menlo-Regular,Menlo" font-size="68.0" fill="#000000" transform="matrix(1.00, 0.00, -0.00, -1.00, 737.2, 585.0)">w</text><text xml:space="preserve" font-family="Menlo-Regular,Menlo" font-size="68.0" fill="#000000" transform="matrix(1.00, 0.00, -0.00, -1.00, 778.1, 585.0)">i</text><text xml:space="preserve" font-family="Menlo-Regular,Menlo" font-size="68.0" fill="#000000" transform="matrix(1.00, 0.00, -0.00, -1.00, 819.1, 585.0)">k</text><text xml:space="preserve" font-family="Menlo-Regular,Menlo" font-size="68.0" fill="#000000" transform="matrix(1.00, 0.00, -0.00, -1.00, 860.0, 585.0)">i</text><text xml:space="preserve" font-family="Menlo-Regular,Menlo" font-size="68.0" fill="#000000" transform="matrix(1.00, 0.00, -0.00, -1.00, 901.0, 585.0)">)</text><text xml:space="preserve" font-family="Menlo-Regular,Menlo" font-size="36.0" fill="#000000" transform="matrix(1.00, 0.00, -0.00, -1.00, 79.0, 510.5)">Т</text><text xml:space="preserve" font-family="Menlo-Regular,Menlo" font-size="36.0" fill="#000000" transform="matrix(1.00, 0.00, -0.00, -1.00, 100.7, 510.5)">р</text><text xml:space="preserve" font-family="Menlo-Regular,Menlo" font-size="36.0" fill="#000000" transform="matrix(1.00, 0.00, -0.00, -1.00, 122.4, 510.5)">е</text><text xml:space="preserve" font-family="Menlo-Regular,Menlo" font-size="36.0" fill="#000000" transform="matrix(1.00, 0.00, -0.00, -1.00, 144.0, 510.5)">б</text><text xml:space="preserve" font-family="Menlo-Regular,Menlo" font-size="36.0" fill="#000000" transform="matrix(1.00, 0.00, -0.00, -1.00, 165.7, 510.5)">о</text><text xml:space="preserve" font-family="Menlo-Regular,Menlo" font-size="36.0" fill="#000000" transform="matrix(1.00, 0.00, -0.00, -1.00, 187.4, 510.5)">в</text><text xml:space="preserve" font-family="Menlo-Regular,Menlo" font-size="36.0" fill="#000000" transform="matrix(1.00, 0.00, -0.00, -1.00, 209.1, 510.5)">а</text><text xml:space="preserve" font-family="Menlo-Regular,Menlo" font-size="36.0" fill="#000000" transform="matrix(1.00, 0.00, -0.00, -1.00, 230.7, 510.5)">н</text><text xml:space="preserve" font-family="Menlo-Regular,Menlo" font-size="36.0" fill="#000000" transform="matrix(1.00, 0.00, -0.00, -1.00, 252.4, 510.5)">и</text><text xml:space="preserve" font-family="Menlo-Regular,Menlo" font-size="36.0" fill="#000000" transform="matrix(1.00, 0.00, -0.00, -1.00, 274.1, 510.5)">я</text><text xml:space="preserve" font-family="Menlo-Regular,Menlo" font-size="36.0" fill="#000000" transform="matrix(1.00, 0.00, -0.00, -1.00, 295.8, 510.5)"> </text><text xml:space="preserve" font-family="Menlo-Regular,Menlo" font-size="36.0" fill="#000000" transform="matrix(1.00, 0.00, -0.00, -1.00, 317.5, 510.5)">к</text><text xml:space="preserve" font-family="Menlo-Regular,Menlo" font-size="36.0" fill="#000000" transform="matrix(1.00, 0.00, -0.00, -1.00, 339.1, 510.5)"> </text><text xml:space="preserve" font-family="Menlo-Regular,Menlo" font-size="36.0" fill="#000000" transform="matrix(1.00, 0.00, -0.00, -1.00, 360.8, 510.5)">п</text><text xml:space="preserve" font-family="Menlo-Regular,Menlo" font-size="36.0" fill="#000000" transform="matrix(1.00, 0.00, -0.00, -1.00, 382.5, 510.5)">л</text><text xml:space="preserve" font-family="Menlo-Regular,Menlo" font-size="36.0" fill="#000000" transform="matrix(1.00, 0.00, -0.00, -1.00, 404.2, 510.5)">а</text><text xml:space="preserve" font-family="Menlo-Regular,Menlo" font-size="36.0" fill="#000000" transform="matrix(1.00, 0.00, -0.00, -1.00, 425.8, 510.5)">г</text><text xml:space="preserve" font-family="Menlo-Regular,Menlo" font-size="36.0" fill="#000000" transform="matrix(1.00, 0.00, -0.00, -1.00, 447.5, 510.5)">и</text><text xml:space="preserve" font-family="Menlo-Regular,Menlo" font-size="36.0" fill="#000000" transform="matrix(1.00, 0.00, -0.00, -1.00, 469.2, 510.5)">н</text><text xml:space="preserve" font-family="Menlo-Regular,Menlo" font-size="36.0" fill="#000000" transform="matrix(1.00, 0.00, -0.00, -1.00, 490.9, 510.5)">у</text><text xml:space="preserve" font-family="Menlo-Regular,Menlo" font-size="36.0" fill="#000000" transform="matrix(1.00, 0.00, -0.00, -1.00, 512.5, 510.5)">:</text><text xml:space="preserve" font-family="Menlo-Regular,Menlo" font-size="36.0" fill="#000000" transform="matrix(1.00, 0.00, -0.00, -1.00, 534.2, 510.5)"> </text><text xml:space="preserve" font-family="Menlo-Regular,Menlo" font-size="36.0" fill="#000000" transform="matrix(1.00, 0.00, -0.00, -1.00, 79.0, 427.5)">1</text><text xml:space="preserve" font-family="Menlo-Regular,Menlo" font-size="36.0" fill="#000000" transform="matrix(1.00, 0.00, -0.00, -1.00, 100.7, 427.5)">.</text><text xml:space="preserve" font-family="Menlo-Regular,Menlo" font-size="36.0" fill="#000000" transform="matrix(1.00, 0.00, -0.00, -1.00, 122.4, 427.5)"> </text><text xml:space="preserve" font-family="Menlo-Regular,Menlo" font-size="36.0" fill="#000000" transform="matrix(1.00, 0.00, -0.00, -1.00, 144.0, 427.5)">Р</text><text xml:space="preserve" font-family="Menlo-Regular,Menlo" font-size="36.0" fill="#000000" transform="matrix(1.00, 0.00, -0.00, -1.00, 165.7, 427.5)">а</text><text xml:space="preserve" font-family="Menlo-Regular,Menlo" font-size="36.0" fill="#000000" transform="matrix(1.00, 0.00, -0.00, -1.00, 187.4, 427.5)">з</text><text xml:space="preserve" font-family="Menlo-Regular,Menlo" font-size="36.0" fill="#000000" transform="matrix(1.00, 0.00, -0.00, -1.00, 209.1, 427.5)">г</text><text xml:space="preserve" font-family="Menlo-Regular,Menlo" font-size="36.0" fill="#000000" transform="matrix(1.00, 0.00, -0.00, -1.00, 230.7, 427.5)">р</text><text xml:space="preserve" font-family="Menlo-Regular,Menlo" font-size="36.0" fill="#000000" transform="matrix(1.00, 0.00, -0.00, -1.00, 252.4, 427.5)">а</text><text xml:space="preserve" font-family="Menlo-Regular,Menlo" font-size="36.0" fill="#000000" transform="matrix(1.00, 0.00, -0.00, -1.00, 274.1, 427.5)">н</text><text xml:space="preserve" font-family="Menlo-Regular,Menlo" font-size="36.0" fill="#000000" transform="matrix(1.00, 0.00, -0.00, -1.00, 295.8, 427.5)">и</text><text xml:space="preserve" font-family="Menlo-Regular,Menlo" font-size="36.0" fill="#000000" transform="matrix(1.00, 0.00, -0.00, -1.00, 317.5, 427.5)">ч</text><text xml:space="preserve" font-family="Menlo-Regular,Menlo" font-size="36.0" fill="#000000" transform="matrix(1.00, 0.00, -0.00, -1.00, 339.1, 427.5)">е</text><text xml:space="preserve" font-family="Menlo-Regular,Menlo" font-size="36.0" fill="#000000" transform="matrix(1.00, 0.00, -0.00, -1.00, 360.8, 427.5)">н</text><text xml:space="preserve" font-family="Menlo-Regular,Menlo" font-size="36.0" fill="#000000" transform="matrix(1.00, 0.00, -0.00, -1.00, 382.5, 427.5)">и</text><text xml:space="preserve" font-family="Menlo-Regular,Menlo" font-size="36.0" fill="#000000" transform="matrix(1.00, 0.00, -0.00, -1.00, 404.2, 427.5)">е</text><text xml:space="preserve" font-family="Menlo-Regular,Menlo" font-size="36.0" fill="#000000" transform="matrix(1.00, 0.00, -0.00, -1.00, 425.8, 427.5)"> </text><text xml:space="preserve" font-family="Menlo-Regular,Menlo" font-size="36.0" fill="#000000" transform="matrix(1.00, 0.00, -0.00, -1.00, 447.5, 427.5)">п</text><text xml:space="preserve" font-family="Menlo-Regular,Menlo" font-size="36.0" fill="#000000" transform="matrix(1.00, 0.00, -0.00, -1.00, 469.2, 427.5)">о</text><text xml:space="preserve" font-family="Menlo-Regular,Menlo" font-size="36.0" fill="#000000" transform="matrix(1.00, 0.00, -0.00, -1.00, 490.9, 427.5)"> </text><text xml:space="preserve" font-family="Menlo-Regular,Menlo" font-size="36.0" fill="#000000" transform="matrix(1.00, 0.00, -0.00, -1.00, 512.5, 427.5)">п</text><text xml:space="preserve" font-family="Menlo-Regular,Menlo" font-size="36.0" fill="#000000" transform="matrix(1.00, 0.00, -0.00, -1.00, 534.2, 427.5)">р</text><text xml:space="preserve" font-family="Menlo-Regular,Menlo" font-size="36.0" fill="#000000" transform="matrix(1.00, 0.00, -0.00, -1.00, 555.9, 427.5)">а</text><text xml:space="preserve" font-family="Menlo-Regular,Menlo" font-size="36.0" fill="#000000" transform="matrix(1.00, 0.00, -0.00, -1.00, 577.6, 427.5)">в</text><text xml:space="preserve" font-family="Menlo-Regular,Menlo" font-size="36.0" fill="#000000" transform="matrix(1.00, 0.00, -0.00, -1.00, 599.3, 427.5)">а</text><text xml:space="preserve" font-family="Menlo-Regular,Menlo" font-size="36.0" fill="#000000" transform="matrix(1.00, 0.00, -0.00, -1.00, 620.9, 427.5)">м</text><text xml:space="preserve" font-family="Menlo-Regular,Menlo" font-size="36.0" fill="#000000" transform="matrix(1.00, 0.00, -0.00, -1.00, 642.6, 427.5)">:</text><text xml:space="preserve" font-family="Menlo-Regular,Menlo" font-size="36.0" fill="#000000" transform="matrix(1.00, 0.00, -0.00, -1.00, 664.3, 427.5)"> </text><text xml:space="preserve" font-family="Menlo-Regular,Menlo" font-size="36.0" fill="#000000" transform="matrix(1.00, 0.00, -0.00, -1.00, 686.0, 427.5)"> </text><text xml:space="preserve" font-family="Menlo-Regular,Menlo" font-size="36.0" fill="#000000" transform="matrix(1.00, 0.00, -0.00, -1.00, 707.6, 427.5)"> </text><text xml:space="preserve" font-family="Menlo-Regular,Menlo" font-size="36.0" fill="#000000" transform="matrix(1.00, 0.00, -0.00, -1.00, 729.3, 427.5)"> </text><text xml:space="preserve" font-family="Menlo-Regular,Menlo" font-size="36.0" fill="#000000" transform="matrix(1.00, 0.00, -0.00, -1.00, 751.0, 427.5)"> </text><text xml:space="preserve" font-family="Menlo-Regular,Menlo" font-size="36.0" fill="#000000" transform="matrix(1.00, 0.00, -0.00, -1.00, 79.0, 344.5)"> </text><text xml:space="preserve" font-family="Menlo-Regular,Menlo" font-size="36.0" fill="#000000" transform="matrix(1.00, 0.00, -0.00, -1.00, 100.7, 344.5)"> </text><text xml:space="preserve" font-family="Menlo-Regular,Menlo" font-size="36.0" fill="#000000" transform="matrix(1.00, 0.00, -0.00, -1.00, 122.4, 344.5)">1</text><text xml:space="preserve" font-family="Menlo-Regular,Menlo" font-size="36.0" fill="#000000" transform="matrix(1.00, 0.00, -0.00, -1.00, 144.0, 344.5)">)</text><text xml:space="preserve" font-family="Menlo-Regular,Menlo" font-size="36.0" fill="#000000" transform="matrix(1.00, 0.00, -0.00, -1.00, 165.7, 344.5)"> </text><text xml:space="preserve" font-family="Menlo-Regular,Menlo" font-size="36.0" fill="#000000" transform="matrix(1.00, 0.00, -0.00, -1.00, 187.4, 344.5)">а</text><text xml:space="preserve" font-family="Menlo-Regular,Menlo" font-size="36.0" fill="#000000" transform="matrix(1.00, 0.00, -0.00, -1.00, 209.1, 344.5)">д</text><text xml:space="preserve" font-family="Menlo-Regular,Menlo" font-size="36.0" fill="#000000" transform="matrix(1.00, 0.00, -0.00, -1.00, 230.7, 344.5)">м</text><text xml:space="preserve" font-family="Menlo-Regular,Menlo" font-size="36.0" fill="#000000" transform="matrix(1.00, 0.00, -0.00, -1.00, 252.4, 344.5)">и</text><text xml:space="preserve" font-family="Menlo-Regular,Menlo" font-size="36.0" fill="#000000" transform="matrix(1.00, 0.00, -0.00, -1.00, 274.1, 344.5)">н</text><text xml:space="preserve" font-family="Menlo-Regular,Menlo" font-size="36.0" fill="#000000" transform="matrix(1.00, 0.00, -0.00, -1.00, 295.8, 344.5)">и</text><text xml:space="preserve" font-family="Menlo-Regular,Menlo" font-size="36.0" fill="#000000" transform="matrix(1.00, 0.00, -0.00, -1.00, 317.5, 344.5)">с</text><text xml:space="preserve" font-family="Menlo-Regular,Menlo" font-size="36.0" fill="#000000" transform="matrix(1.00, 0.00, -0.00, -1.00, 339.1, 344.5)">т</text><text xml:space="preserve" font-family="Menlo-Regular,Menlo" font-size="36.0" fill="#000000" transform="matrix(1.00, 0.00, -0.00, -1.00, 360.8, 344.5)">р</text><text xml:space="preserve" font-family="Menlo-Regular,Menlo" font-size="36.0" fill="#000000" transform="matrix(1.00, 0.00, -0.00, -1.00, 382.5, 344.5)">а</text><text xml:space="preserve" font-family="Menlo-Regular,Menlo" font-size="36.0" fill="#000000" transform="matrix(1.00, 0.00, -0.00, -1.00, 404.2, 344.5)">т</text><text xml:space="preserve" font-family="Menlo-Regular,Menlo" font-size="36.0" fill="#000000" transform="matrix(1.00, 0.00, -0.00, -1.00, 425.8, 344.5)">о</text><text xml:space="preserve" font-family="Menlo-Regular,Menlo" font-size="36.0" fill="#000000" transform="matrix(1.00, 0.00, -0.00, -1.00, 447.5, 344.5)">р</text><text xml:space="preserve" font-family="Menlo-Regular,Menlo" font-size="36.0" fill="#000000" transform="matrix(1.00, 0.00, -0.00, -1.00, 469.2, 344.5)"> </text><text xml:space="preserve" font-family="Menlo-Regular,Menlo" font-size="36.0" fill="#000000" transform="matrix(1.00, 0.00, -0.00, -1.00, 490.9, 344.5)">с</text><text xml:space="preserve" font-family="Menlo-Regular,Menlo" font-size="36.0" fill="#000000" transform="matrix(1.00, 0.00, -0.00, -1.00, 512.5, 344.5)">о</text><text xml:space="preserve" font-family="Menlo-Regular,Menlo" font-size="36.0" fill="#000000" transform="matrix(1.00, 0.00, -0.00, -1.00, 534.2, 344.5)">з</text><text xml:space="preserve" font-family="Menlo-Regular,Menlo" font-size="36.0" fill="#000000" transform="matrix(1.00, 0.00, -0.00, -1.00, 555.9, 344.5)">д</text><text xml:space="preserve" font-family="Menlo-Regular,Menlo" font-size="36.0" fill="#000000" transform="matrix(1.00, 0.00, -0.00, -1.00, 577.6, 344.5)">а</text><text xml:space="preserve" font-family="Menlo-Regular,Menlo" font-size="36.0" fill="#000000" transform="matrix(1.00, 0.00, -0.00, -1.00, 599.3, 344.5)">ё</text><text xml:space="preserve" font-family="Menlo-Regular,Menlo" font-size="36.0" fill="#000000" transform="matrix(1.00, 0.00, -0.00, -1.00, 620.9, 344.5)">т</text><text xml:space="preserve" font-family="Menlo-Regular,Menlo" font-size="36.0" fill="#000000" transform="matrix(1.00, 0.00, -0.00, -1.00, 642.6, 344.5)"> </text><text xml:space="preserve" font-family="Menlo-Regular,Menlo" font-size="36.0" fill="#000000" transform="matrix(1.00, 0.00, -0.00, -1.00, 664.3, 344.5)">и</text><text xml:space="preserve" font-family="Menlo-Regular,Menlo" font-size="36.0" fill="#000000" transform="matrix(1.00, 0.00, -0.00, -1.00, 686.0, 344.5)"> </text><text xml:space="preserve" font-family="Menlo-Regular,Menlo" font-size="36.0" fill="#000000" transform="matrix(1.00, 0.00, -0.00, -1.00, 79.0, 303.5)">р</text><text xml:space="preserve" font-family="Menlo-Regular,Menlo" font-size="36.0" fill="#000000" transform="matrix(1.00, 0.00, -0.00, -1.00, 100.7, 303.5)">е</text><text xml:space="preserve" font-family="Menlo-Regular,Menlo" font-size="36.0" fill="#000000" transform="matrix(1.00, 0.00, -0.00, -1.00, 122.4, 303.5)">д</text><text xml:space="preserve" font-family="Menlo-Regular,Menlo" font-size="36.0" fill="#000000" transform="matrix(1.00, 0.00, -0.00, -1.00, 144.0, 303.5)">а</text><text xml:space="preserve" font-family="Menlo-Regular,Menlo" font-size="36.0" fill="#000000" transform="matrix(1.00, 0.00, -0.00, -1.00, 165.7, 303.5)">к</text><text xml:space="preserve" font-family="Menlo-Regular,Menlo" font-size="36.0" fill="#000000" transform="matrix(1.00, 0.00, -0.00, -1.00, 187.4, 303.5)">т</text><text xml:space="preserve" font-family="Menlo-Regular,Menlo" font-size="36.0" fill="#000000" transform="matrix(1.00, 0.00, -0.00, -1.00, 209.1, 303.5)">и</text><text xml:space="preserve" font-family="Menlo-Regular,Menlo" font-size="36.0" fill="#000000" transform="matrix(1.00, 0.00, -0.00, -1.00, 230.7, 303.5)">р</text><text xml:space="preserve" font-family="Menlo-Regular,Menlo" font-size="36.0" fill="#000000" transform="matrix(1.00, 0.00, -0.00, -1.00, 252.4, 303.5)">у</text><text xml:space="preserve" font-family="Menlo-Regular,Menlo" font-size="36.0" fill="#000000" transform="matrix(1.00, 0.00, -0.00, -1.00, 274.1, 303.5)">е</text><text xml:space="preserve" font-family="Menlo-Regular,Menlo" font-size="36.0" fill="#000000" transform="matrix(1.00, 0.00, -0.00, -1.00, 295.8, 303.5)">т</text><text xml:space="preserve" font-family="Menlo-Regular,Menlo" font-size="36.0" fill="#000000" transform="matrix(1.00, 0.00, -0.00, -1.00, 317.5, 303.5)"> </text><text xml:space="preserve" font-family="Menlo-Regular,Menlo" font-size="36.0" fill="#000000" transform="matrix(1.00, 0.00, -0.00, -1.00, 339.1, 303.5)">с</text><text xml:space="preserve" font-family="Menlo-Regular,Menlo" font-size="36.0" fill="#000000" transform="matrix(1.00, 0.00, -0.00, -1.00, 360.8, 303.5)">п</text><text xml:space="preserve" font-family="Menlo-Regular,Menlo" font-size="36.0" fill="#000000" transform="matrix(1.00, 0.00, -0.00, -1.00, 382.5, 303.5)">р</text><text xml:space="preserve" font-family="Menlo-Regular,Menlo" font-size="36.0" fill="#000000" transform="matrix(1.00, 0.00, -0.00, -1.00, 404.2, 303.5)">а</text><text xml:space="preserve" font-family="Menlo-Regular,Menlo" font-size="36.0" fill="#000000" transform="matrix(1.00, 0.00, -0.00, -1.00, 425.8, 303.5)">в</text><text xml:space="preserve" font-family="Menlo-Regular,Menlo" font-size="36.0" fill="#000000" transform="matrix(1.00, 0.00, -0.00, -1.00, 447.5, 303.5)">к</text><text xml:space="preserve" font-family="Menlo-Regular,Menlo" font-size="36.0" fill="#000000" transform="matrix(1.00, 0.00, -0.00, -1.00, 469.2, 303.5)">у</text><text xml:space="preserve" font-family="Menlo-Regular,Menlo" font-size="36.0" fill="#000000" transform="matrix(1.00, 0.00, -0.00, -1.00, 490.9, 303.5)">;</text><text xml:space="preserve" font-family="Menlo-Regular,Menlo" font-size="36.0" fill="#000000" transform="matrix(1.00, 0.00, -0.00, -1.00, 512.5, 303.5)"> </text><text xml:space="preserve" font-family="Menlo-Regular,Menlo" font-size="36.0" fill="#000000" transform="matrix(1.00, 0.00, -0.00, -1.00, 79.0, 220.5)"> </text><text xml:space="preserve" font-family="Menlo-Regular,Menlo" font-size="36.0" fill="#000000" transform="matrix(1.00, 0.00, -0.00, -1.00, 100.7, 220.5)"> </text><text xml:space="preserve" font-family="Menlo-Regular,Menlo" font-size="36.0" fill="#000000" transform="matrix(1.00, 0.00, -0.00, -1.00, 122.4, 220.5)">2</text><text xml:space="preserve" font-family="Menlo-Regular,Menlo" font-size="36.0" fill="#000000" transform="matrix(1.00, 0.00, -0.00, -1.00, 144.0, 220.5)">)</text><text xml:space="preserve" font-family="Menlo-Regular,Menlo" font-size="36.0" fill="#000000" transform="matrix(1.00, 0.00, -0.00, -1.00, 165.7, 220.5)"> </text><text xml:space="preserve" font-family="Menlo-Regular,Menlo" font-size="36.0" fill="#000000" transform="matrix(1.00, 0.00, -0.00, -1.00, 187.4, 220.5)">п</text><text xml:space="preserve" font-family="Menlo-Regular,Menlo" font-size="36.0" fill="#000000" transform="matrix(1.00, 0.00, -0.00, -1.00, 209.1, 220.5)">о</text><text xml:space="preserve" font-family="Menlo-Regular,Menlo" font-size="36.0" fill="#000000" transform="matrix(1.00, 0.00, -0.00, -1.00, 230.7, 220.5)">л</text><text xml:space="preserve" font-family="Menlo-Regular,Menlo" font-size="36.0" fill="#000000" transform="matrix(1.00, 0.00, -0.00, -1.00, 252.4, 220.5)">ь</text><text xml:space="preserve" font-family="Menlo-Regular,Menlo" font-size="36.0" fill="#000000" transform="matrix(1.00, 0.00, -0.00, -1.00, 274.1, 220.5)">з</text><text xml:space="preserve" font-family="Menlo-Regular,Menlo" font-size="36.0" fill="#000000" transform="matrix(1.00, 0.00, -0.00, -1.00, 295.8, 220.5)">о</text><text xml:space="preserve" font-family="Menlo-Regular,Menlo" font-size="36.0" fill="#000000" transform="matrix(1.00, 0.00, -0.00, -1.00, 317.5, 220.5)">в</text><text xml:space="preserve" font-family="Menlo-Regular,Menlo" font-size="36.0" fill="#000000" transform="matrix(1.00, 0.00, -0.00, -1.00, 339.1, 220.5)">а</text><text xml:space="preserve" font-family="Menlo-Regular,Menlo" font-size="36.0" fill="#000000" transform="matrix(1.00, 0.00, -0.00, -1.00, 360.8, 220.5)">т</text><text xml:space="preserve" font-family="Menlo-Regular,Menlo" font-size="36.0" fill="#000000" transform="matrix(1.00, 0.00, -0.00, -1.00, 382.5, 220.5)">е</text><text xml:space="preserve" font-family="Menlo-Regular,Menlo" font-size="36.0" fill="#000000" transform="matrix(1.00, 0.00, -0.00, -1.00, 404.2, 220.5)">л</text><text xml:space="preserve" font-family="Menlo-Regular,Menlo" font-size="36.0" fill="#000000" transform="matrix(1.00, 0.00, -0.00, -1.00, 425.8, 220.5)">и</text><text xml:space="preserve" font-family="Menlo-Regular,Menlo" font-size="36.0" fill="#000000" transform="matrix(1.00, 0.00, -0.00, -1.00, 447.5, 220.5)"> </text><text xml:space="preserve" font-family="Menlo-Regular,Menlo" font-size="36.0" fill="#000000" transform="matrix(1.00, 0.00, -0.00, -1.00, 469.2, 220.5)">п</text><text xml:space="preserve" font-family="Menlo-Regular,Menlo" font-size="36.0" fill="#000000" transform="matrix(1.00, 0.00, -0.00, -1.00, 490.9, 220.5)">р</text><text xml:space="preserve" font-family="Menlo-Regular,Menlo" font-size="36.0" fill="#000000" transform="matrix(1.00, 0.00, -0.00, -1.00, 512.5, 220.5)">о</text><text xml:space="preserve" font-family="Menlo-Regular,Menlo" font-size="36.0" fill="#000000" transform="matrix(1.00, 0.00, -0.00, -1.00, 534.2, 220.5)">с</text><text xml:space="preserve" font-family="Menlo-Regular,Menlo" font-size="36.0" fill="#000000" transform="matrix(1.00, 0.00, -0.00, -1.00, 555.9, 220.5)">м</text><text xml:space="preserve" font-family="Menlo-Regular,Menlo" font-size="36.0" fill="#000000" transform="matrix(1.00, 0.00, -0.00, -1.00, 577.6, 220.5)">а</text><text xml:space="preserve" font-family="Menlo-Regular,Menlo" font-size="36.0" fill="#000000" transform="matrix(1.00, 0.00, -0.00, -1.00, 599.3, 220.5)">т</text><text xml:space="preserve" font-family="Menlo-Regular,Menlo" font-size="36.0" fill="#000000" transform="matrix(1.00, 0.00, -0.00, -1.00, 620.9, 220.5)">р</text><text xml:space="preserve" font-family="Menlo-Regular,Menlo" font-size="36.0" fill="#000000" transform="matrix(1.00, 0.00, -0.00, -1.00, 642.6, 220.5)">и</text><text xml:space="preserve" font-family="Menlo-Regular,Menlo" font-size="36.0" fill="#000000" transform="matrix(1.00, 0.00, -0.00, -1.00, 664.3, 220.5)">в</text><text xml:space="preserve" font-family="Menlo-Regular,Menlo" font-size="36.0" fill="#000000" transform="matrix(1.00, 0.00, -0.00, -1.00, 686.0, 220.5)">а</text><text xml:space="preserve" font-family="Menlo-Regular,Menlo" font-size="36.0" fill="#000000" transform="matrix(1.00, 0.00, -0.00, -1.00, 707.6, 220.5)">ю</text><text xml:space="preserve" font-family="Menlo-Regular,Menlo" font-size="36.0" fill="#000000" transform="matrix(1.00, 0.00, -0.00, -1.00, 729.3, 220.5)">т</text><text xml:space="preserve" font-family="Menlo-Regular,Menlo" font-size="36.0" fill="#000000" transform="matrix(1.00, 0.00, -0.00, -1.00, 751.0, 220.5)"> </text><text xml:space="preserve" font-family="Menlo-Regular,Menlo" font-size="36.0" fill="#000000" transform="matrix(1.00, 0.00, -0.00, -1.00, 79.0, 179.5)">с</text><text xml:space="preserve" font-family="Menlo-Regular,Menlo" font-size="36.0" fill="#000000" transform="matrix(1.00, 0.00, -0.00, -1.00, 100.7, 179.5)">п</text><text xml:space="preserve" font-family="Menlo-Regular,Menlo" font-size="36.0" fill="#000000" transform="matrix(1.00, 0.00, -0.00, -1.00, 122.4, 179.5)">р</text><text xml:space="preserve" font-family="Menlo-Regular,Menlo" font-size="36.0" fill="#000000" transform="matrix(1.00, 0.00, -0.00, -1.00, 144.0, 179.5)">а</text><text xml:space="preserve" font-family="Menlo-Regular,Menlo" font-size="36.0" fill="#000000" transform="matrix(1.00, 0.00, -0.00, -1.00, 165.7, 179.5)">в</text><text xml:space="preserve" font-family="Menlo-Regular,Menlo" font-size="36.0" fill="#000000" transform="matrix(1.00, 0.00, -0.00, -1.00, 187.4, 179.5)">к</text><text xml:space="preserve" font-family="Menlo-Regular,Menlo" font-size="36.0" fill="#000000" transform="matrix(1.00, 0.00, -0.00, -1.00, 209.1, 179.5)">у</text><text xml:space="preserve" font-family="Menlo-Regular,Menlo" font-size="36.0" fill="#000000" transform="matrix(1.00, 0.00, -0.00, -1.00, 230.7, 179.5)">.</text><text xml:space="preserve" font-family="Menlo-Regular,Menlo" font-size="36.0" fill="#000000" transform="matrix(1.00, 0.00, -0.00, -1.00, 252.4, 179.5)"> </text><text xml:space="preserve" font-family="Menlo-Regular,Menlo" font-size="36.0" fill="#000000" transform="matrix(1.00, 0.00, -0.00, -1.00, 79.0, 96.5)">2</text><text xml:space="preserve" font-family="Menlo-Regular,Menlo" font-size="36.0" fill="#000000" transform="matrix(1.00, 0.00, -0.00, -1.00, 100.7, 96.5)">.</text><text xml:space="preserve" font-family="Menlo-Regular,Menlo" font-size="36.0" fill="#000000" transform="matrix(1.00, 0.00, -0.00, -1.00, 122.4, 96.5)"> </text><text xml:space="preserve" font-family="Menlo-Regular,Menlo" font-size="36.0" fill="#000000" transform="matrix(1.00, 0.00, -0.00, -1.00, 144.0, 96.5)">Ф</text><text xml:space="preserve" font-family="Menlo-Regular,Menlo" font-size="36.0" fill="#000000" transform="matrix(1.00, 0.00, -0.00, -1.00, 165.7, 96.5)">о</text><text xml:space="preserve" font-family="Menlo-Regular,Menlo" font-size="36.0" fill="#000000" transform="matrix(1.00, 0.00, -0.00, -1.00, 187.4, 96.5)">р</text><text xml:space="preserve" font-family="Menlo-Regular,Menlo" font-size="36.0" fill="#000000" transform="matrix(1.00, 0.00, -0.00, -1.00, 209.1, 96.5)">м</text><text xml:space="preserve" font-family="Menlo-Regular,Menlo" font-size="36.0" fill="#000000" transform="matrix(1.00, 0.00, -0.00, -1.00, 230.7, 96.5)">а</text><text xml:space="preserve" font-family="Menlo-Regular,Menlo" font-size="36.0" fill="#000000" transform="matrix(1.00, 0.00, -0.00, -1.00, 252.4, 96.5)">т</text><text xml:space="preserve" font-family="Menlo-Regular,Menlo" font-size="36.0" fill="#000000" transform="matrix(1.00, 0.00, -0.00, -1.00, 274.1, 96.5)">и</text><text xml:space="preserve" font-family="Menlo-Regular,Menlo" font-size="36.0" fill="#000000" transform="matrix(1.00, 0.00, -0.00, -1.00, 295.8, 96.5)">р</text><text xml:space="preserve" font-family="Menlo-Regular,Menlo" font-size="36.0" fill="#000000" transform="matrix(1.00, 0.00, -0.00, -1.00, 317.5, 96.5)">о</text><text xml:space="preserve" font-family="Menlo-Regular,Menlo" font-size="36.0" fill="#000000" transform="matrix(1.00, 0.00, -0.00, -1.00, 339.1, 96.5)">в</text><text xml:space="preserve" font-family="Menlo-Regular,Menlo" font-size="36.0" fill="#000000" transform="matrix(1.00, 0.00, -0.00, -1.00, 360.8, 96.5)">а</text><text xml:space="preserve" font-family="Menlo-Regular,Menlo" font-size="36.0" fill="#000000" transform="matrix(1.00, 0.00, -0.00, -1.00, 382.5, 96.5)">н</text><text xml:space="preserve" font-family="Menlo-Regular,Menlo" font-size="36.0" fill="#000000" transform="matrix(1.00, 0.00, -0.00, -1.00, 404.2, 96.5)">и</text><text xml:space="preserve" font-family="Menlo-Regular,Menlo" font-size="36.0" fill="#000000" transform="matrix(1.00, 0.00, -0.00, -1.00, 425.8, 96.5)">е</text><text xml:space="preserve" font-family="Menlo-Regular,Menlo" font-size="36.0" fill="#000000" transform="matrix(1.00, 0.00, -0.00, -1.00, 447.5, 96.5)"> </text><text xml:space="preserve" font-family="Menlo-Regular,Menlo" font-size="36.0" fill="#000000" transform="matrix(1.00, 0.00, -0.00, -1.00, 469.2, 96.5)">т</text><text xml:space="preserve" font-family="Menlo-Regular,Menlo" font-size="36.0" fill="#000000" transform="matrix(1.00, 0.00, -0.00, -1.00, 490.9, 96.5)">е</text><text xml:space="preserve" font-family="Menlo-Regular,Menlo" font-size="36.0" fill="#000000" transform="matrix(1.00, 0.00, -0.00, -1.00, 512.5, 96.5)">к</text><text xml:space="preserve" font-family="Menlo-Regular,Menlo" font-size="36.0" fill="#000000" transform="matrix(1.00, 0.00, -0.00, -1.00, 534.2, 96.5)">с</text><text xml:space="preserve" font-family="Menlo-Regular,Menlo" font-size="36.0" fill="#000000" transform="matrix(1.00, 0.00, -0.00, -1.00, 555.9, 96.5)">т</text><text xml:space="preserve" font-family="Menlo-Regular,Menlo" font-size="36.0" fill="#000000" transform="matrix(1.00, 0.00, -0.00, -1.00, 577.6, 96.5)">а</text><text xml:space="preserve" font-family="Menlo-Regular,Menlo" font-size="36.0" fill="#000000" transform="matrix(1.00, 0.00, -0.00, -1.00, 599.3, 96.5)"> </text><text xml:space="preserve" font-family="Menlo-Regular,Menlo" font-size="36.0" fill="#000000" transform="matrix(1.00, 0.00, -0.00, -1.00, 620.9, 96.5)">в</text><text xml:space="preserve" font-family="Menlo-Regular,Menlo" font-size="36.0" fill="#000000" transform="matrix(1.00, 0.00, -0.00, -1.00, 642.6, 96.5)"> </text><text xml:space="preserve" font-family="Menlo-Regular,Menlo" font-size="36.0" fill="#000000" transform="matrix(1.00, 0.00, -0.00, -1.00, 664.2, 96.5)">M</text><text xml:space="preserve" font-family="Menlo-Regular,Menlo" font-size="36.0" fill="#000000" transform="matrix(1.00, 0.00, -0.00, -1.00, 685.9, 96.5)">a</text><text xml:space="preserve" font-family="Menlo-Regular,Menlo" font-size="36.0" fill="#000000" transform="matrix(1.00, 0.00, -0.00, -1.00, 707.5, 96.5)">r</text><text xml:space="preserve" font-family="Menlo-Regular,Menlo" font-size="36.0" fill="#000000" transform="matrix(1.00, 0.00, -0.00, -1.00, 729.2, 96.5)">k</text><text xml:space="preserve" font-family="Menlo-Regular,Menlo" font-size="36.0" fill="#000000" transform="matrix(1.00, 0.00, -0.00, -1.00, 750.9, 96.5)">d</text><text xml:space="preserve" font-family="Menlo-Regular,Menlo" font-size="36.0" fill="#000000" transform="matrix(1.00, 0.00, -0.00, -1.00, 772.6, 96.5)">o</text><text xml:space="preserve" font-family="Menlo-Regular,Menlo" font-size="36.0" fill="#000000" transform="matrix(1.00, 0.00, -0.00, -1.00, 794.3, 96.5)">w</text><text xml:space="preserve" font-family="Menlo-Regular,Menlo" font-size="36.0" fill="#000000" transform="matrix(1.00, 0.00, -0.00, -1.00, 815.9, 96.5)">n</text><text xml:space="preserve" font-family="Menlo-Regular,Menlo" font-size="36.0" fill="#000000" transform="matrix(1.00, 0.00, -0.00, -1.00, 837.6, 96.5)">.</text></g></svg>