<?xml version="1.0" encoding="UTF-8" standalone="no"?><svg xmlns="http://www.w3.org/2000/svg" xmlns:xlink="http://www.w3.org/1999/xlink" clip-rule="evenodd" stroke-miterlimit="10" viewBox="0 0 1024 768"><desc>SVG generated by Keynote</desc><defs></defs><g transform="matrix(1.00, 0.00, -0.00, -1.00, 0.0, 768.0)"><path d="M 0.0 768.0 L 1024.0 768.0 L 1024.0 0.0 L 0.0 0.0 Z M 0.0 768.0 " fill="#DCDDE0"></path><text xml:space="preserve" font-family="Menlo-Regular,Menlo" font-size="80.0" fill="#000000" transform="matrix(1.00, 0.00, -0.00, -1.00, 126.7, 619.9)">Д</text><text xml:space="preserve" font-family="Menlo-Regular,Menlo" font-size="80.0" fill="#000000" transform="matrix(1.00, 0.00, -0.00, -1.00, 174.9, 619.9)">а</text><text xml:space="preserve" font-family="Menlo-Regular,Menlo" font-size="80.0" fill="#000000" transform="matrix(1.00, 0.00, -0.00, -1.00, 223.0, 619.9)">л</text><text xml:space="preserve" font-family="Menlo-Regular,Menlo" font-size="80.0" fill="#000000" transform="matrix(1.00, 0.00, -0.00, -1.00, 271.2, 619.9)">ь</text><text xml:space="preserve" font-family="Menlo-Regular,Menlo" font-size="80.0" fill="#000000" transform="matrix(1.00, 0.00, -0.00, -1.00, 319.4, 619.9)">н</text><text xml:space="preserve" font-family="Menlo-Regular,Menlo" font-size="80.0" fill="#000000" transform="matrix(1.00, 0.00, -0.00, -1.00, 367.5, 619.9)">е</text><text xml:space="preserve" font-family="Menlo-Regular,Menlo" font-size="80.0" fill="#000000" transform="matrix(1.00, 0.00, -0.00, -1.00, 415.7, 619.9)">й</text><text xml:space="preserve" font-family="Menlo-Regular,Menlo" font-size="80.0" fill="#000000" transform="matrix(1.00, 0.00, -0.00, -1.00, 463.9, 619.9)">ш</text><text xml:space="preserve" font-family="Menlo-Regular,Menlo" font-size="80.0" fill="#000000" transform="matrix(1.00, 0.00, -0.00, -1.00, 512.1, 619.9)">и</text><text xml:space="preserve" font-family="Menlo-Regular,Menlo" font-size="80.0" fill="#000000" transform="matrix(1.00, 0.00, -0.00, -1.00, 560.2, 619.9)">е</text><text xml:space="preserve" font-family="Menlo-Regular,Menlo" font-size="80.0" fill="#000000" transform="matrix(1.00, 0.00, -0.00, -1.00, 608.4, 619.9)"> </text><text xml:space="preserve" font-family="Menlo-Regular,Menlo" font-size="80.0" fill="#000000" transform="matrix(1.00, 0.00, -0.00, -1.00, 656.6, 619.9)">п</text><text xml:space="preserve" font-family="Menlo-Regular,Menlo" font-size="80.0" fill="#000000" transform="matrix(1.00, 0.00, -0.00, -1.00, 704.8, 619.9)">л</text><text xml:space="preserve" font-family="Menlo-Regular,Menlo" font-size="80.0" fill="#000000" transform="matrix(1.00, 0.00, -0.00, -1.00, 752.9, 619.9)">а</text><text xml:space="preserve" font-family="Menlo-Regular,Menlo" font-size="80.0" fill="#000000" transform="matrix(1.00, 0.00, -0.00, -1.00, 801.1, 619.9)">н</text><text xml:space="preserve" font-family="Menlo-Regular,Menlo" font-size="80.0" fill="#000000" transform="matrix(1.00, 0.00, -0.00, -1.00, 849.3, 619.9)">ы</text><text xml:space="preserve" font-family="Menlo-Regular,Menlo" font-size="36.0" fill="#000000" transform="matrix(1.00, 0.00, -0.00, -1.00, 79.0, 448.5)">1</text><text xml:space="preserve" font-family="Menlo-Regular,Menlo" font-size="36.0" fill="#000000" transform="matrix(1.00, 0.00, -0.00, -1.00, 100.7, 448.5)">.</text><text xml:space="preserve" font-family="Menlo-Regular,Menlo" font-size="36.0" fill="#000000" transform="matrix(1.00, 0.00, -0.00, -1.00, 129.0, 448.5)">Р</text><text xml:space="preserve" font-family="Menlo-Regular,Menlo" font-size="36.0" fill="#000000" transform="matrix(1.00, 0.00, -0.00, -1.00, 150.7, 448.5)">е</text><text xml:space="preserve" font-family="Menlo-Regular,Menlo" font-size="36.0" fill="#000000" transform="matrix(1.00, 0.00, -0.00, -1.00, 172.4, 448.5)">а</text><text xml:space="preserve" font-family="Menlo-Regular,Menlo" font-size="36.0" fill="#000000" transform="matrix(1.00, 0.00, -0.00, -1.00, 194.0, 448.5)">л</text><text xml:space="preserve" font-family="Menlo-Regular,Menlo" font-size="36.0" fill="#000000" transform="matrix(1.00, 0.00, -0.00, -1.00, 215.7, 448.5)">и</text><text xml:space="preserve" font-family="Menlo-Regular,Menlo" font-size="36.0" fill="#000000" transform="matrix(1.00, 0.00, -0.00, -1.00, 237.4, 448.5)">з</text><text xml:space="preserve" font-family="Menlo-Regular,Menlo" font-size="36.0" fill="#000000" transform="matrix(1.00, 0.00, -0.00, -1.00, 259.1, 448.5)">а</text><text xml:space="preserve" font-family="Menlo-Regular,Menlo" font-size="36.0" fill="#000000" transform="matrix(1.00, 0.00, -0.00, -1.00, 280.7, 448.5)">ц</text><text xml:space="preserve" font-family="Menlo-Regular,Menlo" font-size="36.0" fill="#000000" transform="matrix(1.00, 0.00, -0.00, -1.00, 302.4, 448.5)">и</text><text xml:space="preserve" font-family="Menlo-Regular,Menlo" font-size="36.0" fill="#000000" transform="matrix(1.00, 0.00, -0.00, -1.00, 324.1, 448.5)">я</text><text xml:space="preserve" font-family="Menlo-Regular,Menlo" font-size="36.0" fill="#000000" transform="matrix(1.00, 0.00, -0.00, -1.00, 345.8, 448.5)"> </text><text xml:space="preserve" font-family="Menlo-Regular,Menlo" font-size="36.0" fill="#000000" transform="matrix(1.00, 0.00, -0.00, -1.00, 367.5, 448.5)">п</text><text xml:space="preserve" font-family="Menlo-Regular,Menlo" font-size="36.0" fill="#000000" transform="matrix(1.00, 0.00, -0.00, -1.00, 389.1, 448.5)">л</text><text xml:space="preserve" font-family="Menlo-Regular,Menlo" font-size="36.0" fill="#000000" transform="matrix(1.00, 0.00, -0.00, -1.00, 410.8, 448.5)">а</text><text xml:space="preserve" font-family="Menlo-Regular,Menlo" font-size="36.0" fill="#000000" transform="matrix(1.00, 0.00, -0.00, -1.00, 432.5, 448.5)">г</text><text xml:space="preserve" font-family="Menlo-Regular,Menlo" font-size="36.0" fill="#000000" transform="matrix(1.00, 0.00, -0.00, -1.00, 454.2, 448.5)">и</text><text xml:space="preserve" font-family="Menlo-Regular,Menlo" font-size="36.0" fill="#000000" transform="matrix(1.00, 0.00, -0.00, -1.00, 475.8, 448.5)">н</text><text xml:space="preserve" font-family="Menlo-Regular,Menlo" font-size="36.0" fill="#000000" transform="matrix(1.00, 0.00, -0.00, -1.00, 497.5, 448.5)">а</text><text xml:space="preserve" font-family="Menlo-Regular,Menlo" font-size="36.0" fill="#000000" transform="matrix(1.00, 0.00, -0.00, -1.00, 519.2, 448.5)"> </text><text xml:space="preserve" font-family="Menlo-Regular,Menlo" font-size="36.0" fill="#000000" transform="matrix(1.00, 0.00, -0.00, -1.00, 540.9, 448.5)">Т</text><text xml:space="preserve" font-family="Menlo-Regular,Menlo" font-size="36.0" fill="#000000" transform="matrix(1.00, 0.00, -0.00, -1.00, 562.5, 448.5)">е</text><text xml:space="preserve" font-family="Menlo-Regular,Menlo" font-size="36.0" fill="#000000" transform="matrix(1.00, 0.00, -0.00, -1.00, 584.2, 448.5)">х</text><text xml:space="preserve" font-family="Menlo-Regular,Menlo" font-size="36.0" fill="#000000" transform="matrix(1.00, 0.00, -0.00, -1.00, 605.9, 448.5)">п</text><text xml:space="preserve" font-family="Menlo-Regular,Menlo" font-size="36.0" fill="#000000" transform="matrix(1.00, 0.00, -0.00, -1.00, 627.6, 448.5)">о</text><text xml:space="preserve" font-family="Menlo-Regular,Menlo" font-size="36.0" fill="#000000" transform="matrix(1.00, 0.00, -0.00, -1.00, 649.3, 448.5)">д</text><text xml:space="preserve" font-family="Menlo-Regular,Menlo" font-size="36.0" fill="#000000" transform="matrix(1.00, 0.00, -0.00, -1.00, 670.9, 448.5)">д</text><text xml:space="preserve" font-family="Menlo-Regular,Menlo" font-size="36.0" fill="#000000" transform="matrix(1.00, 0.00, -0.00, -1.00, 692.6, 448.5)">е</text><text xml:space="preserve" font-family="Menlo-Regular,Menlo" font-size="36.0" fill="#000000" transform="matrix(1.00, 0.00, -0.00, -1.00, 714.3, 448.5)">р</text><text xml:space="preserve" font-family="Menlo-Regular,Menlo" font-size="36.0" fill="#000000" transform="matrix(1.00, 0.00, -0.00, -1.00, 736.0, 448.5)">ж</text><text xml:space="preserve" font-family="Menlo-Regular,Menlo" font-size="36.0" fill="#000000" transform="matrix(1.00, 0.00, -0.00, -1.00, 757.6, 448.5)">к</text><text xml:space="preserve" font-family="Menlo-Regular,Menlo" font-size="36.0" fill="#000000" transform="matrix(1.00, 0.00, -0.00, -1.00, 779.3, 448.5)">а</text><text xml:space="preserve" font-family="Menlo-Regular,Menlo" font-size="36.0" fill="#000000" transform="matrix(1.00, 0.00, -0.00, -1.00, 801.0, 448.5)">.</text><text xml:space="preserve" font-family="Menlo-Regular,Menlo" font-size="36.0" fill="#000000" transform="matrix(1.00, 0.00, -0.00, -1.00, 822.7, 448.5)"> </text><text xml:space="preserve" font-family="Menlo-Regular,Menlo" font-size="36.0" fill="#000000" transform="matrix(1.00, 0.00, -0.00, -1.00, 79.0, 365.5)">2</text><text xml:space="preserve" font-family="Menlo-Regular,Menlo" font-size="36.0" fill="#000000" transform="matrix(1.00, 0.00, -0.00, -1.00, 100.7, 365.5)">.</text><text xml:space="preserve" font-family="Menlo-Regular,Menlo" font-size="36.0" fill="#000000" transform="matrix(1.00, 0.00, -0.00, -1.00, 129.0, 365.5)">С</text><text xml:space="preserve" font-family="Menlo-Regular,Menlo" font-size="36.0" fill="#000000" transform="matrix(1.00, 0.00, -0.00, -1.00, 150.7, 365.5)">б</text><text xml:space="preserve" font-family="Menlo-Regular,Menlo" font-size="36.0" fill="#000000" transform="matrix(1.00, 0.00, -0.00, -1.00, 172.4, 365.5)">о</text><text xml:space="preserve" font-family="Menlo-Regular,Menlo" font-size="36.0" fill="#000000" transform="matrix(1.00, 0.00, -0.00, -1.00, 194.0, 365.5)">р</text><text xml:space="preserve" font-family="Menlo-Regular,Menlo" font-size="36.0" fill="#000000" transform="matrix(1.00, 0.00, -0.00, -1.00, 215.7, 365.5)">к</text><text xml:space="preserve" font-family="Menlo-Regular,Menlo" font-size="36.0" fill="#000000" transform="matrix(1.00, 0.00, -0.00, -1.00, 237.4, 365.5)">а</text><text xml:space="preserve" font-family="Menlo-Regular,Menlo" font-size="36.0" fill="#000000" transform="matrix(1.00, 0.00, -0.00, -1.00, 259.1, 365.5)"> </text><text xml:space="preserve" font-family="Menlo-Regular,Menlo" font-size="36.0" fill="#000000" transform="matrix(1.00, 0.00, -0.00, -1.00, 280.7, 365.5)">о</text><text xml:space="preserve" font-family="Menlo-Regular,Menlo" font-size="36.0" fill="#000000" transform="matrix(1.00, 0.00, -0.00, -1.00, 302.4, 365.5)">б</text><text xml:space="preserve" font-family="Menlo-Regular,Menlo" font-size="36.0" fill="#000000" transform="matrix(1.00, 0.00, -0.00, -1.00, 324.1, 365.5)">р</text><text xml:space="preserve" font-family="Menlo-Regular,Menlo" font-size="36.0" fill="#000000" transform="matrix(1.00, 0.00, -0.00, -1.00, 345.8, 365.5)">а</text><text xml:space="preserve" font-family="Menlo-Regular,Menlo" font-size="36.0" fill="#000000" transform="matrix(1.00, 0.00, -0.00, -1.00, 367.5, 365.5)">з</text><text xml:space="preserve" font-family="Menlo-Regular,Menlo" font-size="36.0" fill="#000000" transform="matrix(1.00, 0.00, -0.00, -1.00, 389.1, 365.5)">а</text><text xml:space="preserve" font-family="Menlo-Regular,Menlo" font-size="36.0" fill="#000000" transform="matrix(1.00, 0.00, -0.00, -1.00, 410.8, 365.5)"> </text><text xml:space="preserve" font-family="Menlo-Regular,Menlo" font-size="36.0" fill="#000000" transform="matrix(1.00, 0.00, -0.00, -1.00, 432.5, 365.5)">o</text><text xml:space="preserve" font-family="Menlo-Regular,Menlo" font-size="36.0" fill="#000000" transform="matrix(1.00, 0.00, -0.00, -1.00, 454.2, 365.5)">c</text><text xml:space="preserve" font-family="Menlo-Regular,Menlo" font-size="36.0" fill="#000000" transform="matrix(1.00, 0.00, -0.00, -1.00, 475.8, 365.5)">t</text><text xml:space="preserve" font-family="Menlo-Regular,Menlo" font-size="36.0" fill="#000000" transform="matrix(1.00, 0.00, -0.00, -1.00, 497.5, 365.5)">o</text><text xml:space="preserve" font-family="Menlo-Regular,Menlo" font-size="36.0" fill="#000000" transform="matrix(1.00, 0.00, -0.00, -1.00, 519.2, 365.5)">s</text><text xml:space="preserve" font-family="Menlo-Regular,Menlo" font-size="36.0" fill="#000000" transform="matrix(1.00, 0.00, -0.00, -1.00, 540.9, 365.5)">h</text><text xml:space="preserve" font-family="Menlo-Regular,Menlo" font-size="36.0" fill="#000000" transform="matrix(1.00, 0.00, -0.00, -1.00, 562.5, 365.5)">e</text><text xml:space="preserve" font-family="Menlo-Regular,Menlo" font-size="36.0" fill="#000000" transform="matrix(1.00, 0.00, -0.00, -1.00, 584.2, 365.5)">l</text><text xml:space="preserve" font-family="Menlo-Regular,Menlo" font-size="36.0" fill="#000000" transform="matrix(1.00, 0.00, -0.00, -1.00, 605.9, 365.5)">l</text><text xml:space="preserve" font-family="Menlo-Regular,Menlo" font-size="36.0" fill="#000000" transform="matrix(1.00, 0.00, -0.00, -1.00, 627.6, 365.5)">-</text><text xml:space="preserve" font-family="Menlo-Regular,Menlo" font-size="36.0" fill="#000000" transform="matrix(1.00, 0.00, -0.00, -1.00, 649.3, 365.5)">b</text><text xml:space="preserve" font-family="Menlo-Regular,Menlo" font-size="36.0" fill="#000000" transform="matrix(1.00, 0.00, -0.00, -1.00, 670.9, 365.5)">a</text><text xml:space="preserve" font-family="Menlo-Regular,Menlo" font-size="36.0" fill="#000000" transform="matrix(1.00, 0.00, -0.00, -1.00, 692.6, 365.5)">s</text><text xml:space="preserve" font-family="Menlo-Regular,Menlo" font-size="36.0" fill="#000000" transform="matrix(1.00, 0.00, -0.00, -1.00, 714.3, 365.5)">i</text><text xml:space="preserve" font-family="Menlo-Regular,Menlo" font-size="36.0" fill="#000000" transform="matrix(1.00, 0.00, -0.00, -1.00, 736.0, 365.5)">c</text><text xml:space="preserve" font-family="Menlo-Regular,Menlo" font-size="36.0" fill="#000000" transform="matrix(1.00, 0.00, -0.00, -1.00, 757.5, 365.5)">.</text><text xml:space="preserve" font-family="Menlo-Regular,Menlo" font-size="36.0" fill="#000000" transform="matrix(1.00, 0.00, -0.00, -1.00, 779.2, 365.5)"> </text><text xml:space="preserve" font-family="Menlo-Regular,Menlo" font-size="36.0" fill="#000000" transform="matrix(1.00, 0.00, -0.00, -1.00, 79.0, 282.5)">3</text><text xml:space="preserve" font-family="Menlo-Regular,Menlo" font-size="36.0" fill="#000000" transform="matrix(1.00, 0.00, -0.00, -1.00, 100.7, 282.5)">.</text><text xml:space="preserve" font-family="Menlo-Regular,Menlo" font-size="36.0" fill="#000000" transform="matrix(1.00, 0.00, -0.00, -1.00, 129.0, 282.5)">С</text><text xml:space="preserve" font-family="Menlo-Regular,Menlo" font-size="36.0" fill="#000000" transform="matrix(1.00, 0.00, -0.00, -1.00, 150.7, 282.5)">о</text><text xml:space="preserve" font-family="Menlo-Regular,Menlo" font-size="36.0" fill="#000000" transform="matrix(1.00, 0.00, -0.00, -1.00, 172.4, 282.5)">з</text><text xml:space="preserve" font-family="Menlo-Regular,Menlo" font-size="36.0" fill="#000000" transform="matrix(1.00, 0.00, -0.00, -1.00, 194.0, 282.5)">д</text><text xml:space="preserve" font-family="Menlo-Regular,Menlo" font-size="36.0" fill="#000000" transform="matrix(1.00, 0.00, -0.00, -1.00, 215.7, 282.5)">а</text><text xml:space="preserve" font-family="Menlo-Regular,Menlo" font-size="36.0" fill="#000000" transform="matrix(1.00, 0.00, -0.00, -1.00, 237.4, 282.5)">н</text><text xml:space="preserve" font-family="Menlo-Regular,Menlo" font-size="36.0" fill="#000000" transform="matrix(1.00, 0.00, -0.00, -1.00, 259.1, 282.5)">и</text><text xml:space="preserve" font-family="Menlo-Regular,Menlo" font-size="36.0" fill="#000000" transform="matrix(1.00, 0.00, -0.00, -1.00, 280.7, 282.5)">е</text><text xml:space="preserve" font-family="Menlo-Regular,Menlo" font-size="36.0" fill="#000000" transform="matrix(1.00, 0.00, -0.00, -1.00, 302.4, 282.5)"> </text><text xml:space="preserve" font-family="Menlo-Regular,Menlo" font-size="36.0" fill="#000000" transform="matrix(1.00, 0.00, -0.00, -1.00, 324.1, 282.5)">д</text><text xml:space="preserve" font-family="Menlo-Regular,Menlo" font-size="36.0" fill="#000000" transform="matrix(1.00, 0.00, -0.00, -1.00, 345.8, 282.5)">о</text><text xml:space="preserve" font-family="Menlo-Regular,Menlo" font-size="36.0" fill="#000000" transform="matrix(1.00, 0.00, -0.00, -1.00, 367.5, 282.5)">к</text><text xml:space="preserve" font-family="Menlo-Regular,Menlo" font-size="36.0" fill="#000000" transform="matrix(1.00, 0.00, -0.00, -1.00, 389.1, 282.5)">у</text><text xml:space="preserve" font-family="Menlo-Regular,Menlo" font-size="36.0" fill="#000000" transform="matrix(1.00, 0.00, -0.00, -1.00, 410.8, 282.5)">м</text><text xml:space="preserve" font-family="Menlo-Regular,Menlo" font-size="36.0" fill="#000000" transform="matrix(1.00, 0.00, -0.00, -1.00, 432.5, 282.5)">е</text><text xml:space="preserve" font-family="Menlo-Regular,Menlo" font-size="36.0" fill="#000000" transform="matrix(1.00, 0.00, -0.00, -1.00, 454.2, 282.5)">н</text><text xml:space="preserve" font-family="Menlo-Regular,Menlo" font-size="36.0" fill="#000000" transform="matrix(1.00, 0.00, -0.00, -1.00, 475.8, 282.5)">т</text><text xml:space="preserve" font-family="Menlo-Regular,Menlo" font-size="36.0" fill="#000000" transform="matrix(1.00, 0.00, -0.00, -1.00, 497.5, 282.5)">а</text><text xml:space="preserve" font-family="Menlo-Regular,Menlo" font-size="36.0" fill="#000000" transform="matrix(1.00, 0.00, -0.00, -1.00, 519.2, 282.5)">ц</text><text xml:space="preserve" font-family="Menlo-Regular,Menlo" font-size="36.0" fill="#000000" transform="matrix(1.00, 0.00, -0.00, -1.00, 540.9, 282.5)">и</text><text xml:space="preserve" font-family="Menlo-Regular,Menlo" font-size="36.0" fill="#000000" transform="matrix(1.00, 0.00, -0.00, -1.00, 562.5, 282.5)">и</text><text xml:space="preserve" font-family="Menlo-Regular,Menlo" font-size="36.0" fill="#000000" transform="matrix(1.00, 0.00, -0.00, -1.00, 584.2, 282.5)">.</text><text xml:space="preserve" font-family="Menlo-Regular,Menlo" font-size="36.0" fill="#000000" transform="matrix(1.00, 0.00, -0.00, -1.00, 605.9, 282.5)"> </text><text xml:space="preserve" font-family="Menlo-Regular,Menlo" font-size="36.0" fill="#000000" transform="matrix(1.00, 0.00, -0.00, -1.00, 79.0, 199.5)">4</text><text xml:space="preserve" font-family="Menlo-Regular,Menlo" font-size="36.0" fill="#000000" transform="matrix(1.00, 0.00, -0.00, -1.00, 100.7, 199.5)">.</text><text xml:space="preserve" font-family="Menlo-Regular,Menlo" font-size="36.0" fill="#000000" transform="matrix(1.00, 0.00, -0.00, -1.00, 129.0, 199.5)">Д</text><text xml:space="preserve" font-family="Menlo-Regular,Menlo" font-size="36.0" fill="#000000" transform="matrix(1.00, 0.00, -0.00, -1.00, 150.7, 199.5)">о</text><text xml:space="preserve" font-family="Menlo-Regular,Menlo" font-size="36.0" fill="#000000" transform="matrix(1.00, 0.00, -0.00, -1.00, 172.4, 199.5)">р</text><text xml:space="preserve" font-family="Menlo-Regular,Menlo" font-size="36.0" fill="#000000" transform="matrix(1.00, 0.00, -0.00, -1.00, 194.0, 199.5)">а</text><text xml:space="preserve" font-family="Menlo-Regular,Menlo" font-size="36.0" fill="#000000" transform="matrix(1.00, 0.00, -0.00, -1.00, 215.7, 199.5)">б</text><text xml:space="preserve" font-family="Menlo-Regular,Menlo" font-size="36.0" fill="#000000" transform="matrix(1.00, 0.00, -0.00, -1.00, 237.4, 199.5)">о</text><text xml:space="preserve" font-family="Menlo-Regular,Menlo" font-size="36.0" fill="#000000" transform="matrix(1.00, 0.00, -0.00, -1.00, 259.1, 199.5)">т</text><text xml:space="preserve" font-family="Menlo-Regular,Menlo" font-size="36.0" fill="#000000" transform="matrix(1.00, 0.00, -0.00, -1.00, 280.7, 199.5)">к</text><text xml:space="preserve" font-family="Menlo-Regular,Menlo" font-size="36.0" fill="#000000" transform="matrix(1.00, 0.00, -0.00, -1.00, 302.4, 199.5)">а</text><text xml:space="preserve" font-family="Menlo-Regular,Menlo" font-size="36.0" fill="#000000" transform="matrix(1.00, 0.00, -0.00, -1.00, 324.1, 199.5)"> </text><text xml:space="preserve" font-family="Menlo-Regular,Menlo" font-size="36.0" fill="#000000" transform="matrix(1.00, 0.00, -0.00, -1.00, 345.8, 199.5)">т</text><text xml:space="preserve" font-family="Menlo-Regular,Menlo" font-size="36.0" fill="#000000" transform="matrix(1.00, 0.00, -0.00, -1.00, 367.5, 199.5)">е</text><text xml:space="preserve" font-family="Menlo-Regular,Menlo" font-size="36.0" fill="#000000" transform="matrix(1.00, 0.00, -0.00, -1.00, 389.1, 199.5)">к</text><text xml:space="preserve" font-family="Menlo-Regular,Menlo" font-size="36.0" fill="#000000" transform="matrix(1.00, 0.00, -0.00, -1.00, 410.8, 199.5)">у</text><text xml:space="preserve" font-family="Menlo-Regular,Menlo" font-size="36.0" fill="#000000" transform="matrix(1.00, 0.00, -0.00, -1.00, 432.5, 199.5)">щ</text><text xml:space="preserve" font-family="Menlo-Regular,Menlo" font-size="36.0" fill="#000000" transform="matrix(1.00, 0.00, -0.00, -1.00, 454.2, 199.5)">е</text><text xml:space="preserve" font-family="Menlo-Regular,Menlo" font-size="36.0" fill="#000000" transform="matrix(1.00, 0.00, -0.00, -1.00, 475.8, 199.5)">й</text><text xml:space="preserve" font-family="Menlo-Regular,Menlo" font-size="36.0" fill="#000000" transform="matrix(1.00, 0.00, -0.00, -1.00, 497.5, 199.5)"> </text><text xml:space="preserve" font-family="Menlo-Regular,Menlo" font-size="36.0" fill="#000000" transform="matrix(1.00, 0.00, -0.00, -1.00, 519.2, 199.5)">в</text><text xml:space="preserve" font-family="Menlo-Regular,Menlo" font-size="36.0" fill="#000000" transform="matrix(1.00, 0.00, -0.00, -1.00, 540.9, 199.5)">е</text><text xml:space="preserve" font-family="Menlo-Regular,Menlo" font-size="36.0" fill="#000000" transform="matrix(1.00, 0.00, -0.00, -1.00, 562.5, 199.5)">р</text><text xml:space="preserve" font-family="Menlo-Regular,Menlo" font-size="36.0" fill="#000000" transform="matrix(1.00, 0.00, -0.00, -1.00, 584.2, 199.5)">с</text><text xml:space="preserve" font-family="Menlo-Regular,Menlo" font-size="36.0" fill="#000000" transform="matrix(1.00, 0.00, -0.00, -1.00, 605.9, 199.5)">и</text><text xml:space="preserve" font-family="Menlo-Regular,Menlo" font-size="36.0" fill="#000000" transform="matrix(1.00, 0.00, -0.00, -1.00, 627.6, 199.5)">и</text><text xml:space="preserve" font-family="Menlo-Regular,Menlo" font-size="36.0" fill="#000000" transform="matrix(1.00, 0.00, -0.00, -1.00, 649.3, 199.5)">:</text><text xml:space="preserve" font-family="Menlo-Regular,Menlo" font-size="36.0" fill="#000000" transform="matrix(1.00, 0.00, -0.00, -1.00, 670.9, 199.5)"> </text><text xml:space="preserve" font-family="Menlo-Regular,Menlo" font-size="36.0" fill="#000000" transform="matrix(1.00, 0.00, -0.00, -1.00, 692.6, 199.5)">в</text><text xml:space="preserve" font-family="Menlo-Regular,Menlo" font-size="36.0" fill="#000000" transform="matrix(1.00, 0.00, -0.00, -1.00, 714.3, 199.5)">т</text><text xml:space="preserve" font-family="Menlo-Regular,Menlo" font-size="36.0" fill="#000000" transform="matrix(1.00, 0.00, -0.00, -1.00, 736.0, 199.5)">о</text><text xml:space="preserve" font-family="Menlo-Regular,Menlo" font-size="36.0" fill="#000000" transform="matrix(1.00, 0.00, -0.00, -1.00, 757.6, 199.5)">р</text><text xml:space="preserve" font-family="Menlo-Regular,Menlo" font-size="36.0" fill="#000000" transform="matrix(1.00, 0.00, -0.00, -1.00, 779.3, 199.5)">о</text><text xml:space="preserve" font-family="Menlo-Regular,Menlo" font-size="36.0" fill="#000000" transform="matrix(1.00, 0.00, -0.00, -1.00, 801.0, 199.5)">й</text><text xml:space="preserve" font-family="Menlo-Regular,Menlo" font-size="36.0" fill="#000000" transform="matrix(1.00, 0.00, -0.00, -1.00, 822.7, 199.5)"> </text><text xml:space="preserve" font-family="Menlo-Regular,Menlo" font-size="36.0" fill="#000000" transform="matrix(1.00, 0.00, -0.00, -1.00, 129.0, 158.5)">п</text><text xml:space="preserve" font-family="Menlo-Regular,Menlo" font-size="36.0" fill="#000000" transform="matrix(1.00, 0.00, -0.00, -1.00, 150.7, 158.5)">р</text><text xml:space="preserve" font-family="Menlo-Regular,Menlo" font-size="36.0" fill="#000000" transform="matrix(1.00, 0.00, -0.00, -1.00, 172.4, 158.5)">и</text><text xml:space="preserve" font-family="Menlo-Regular,Menlo" font-size="36.0" fill="#000000" transform="matrix(1.00, 0.00, -0.00, -1.00, 194.0, 158.5)">о</text><text xml:space="preserve" font-family="Menlo-Regular,Menlo" font-size="36.0" fill="#000000" transform="matrix(1.00, 0.00, -0.00, -1.00, 215.7, 158.5)">р</text><text xml:space="preserve" font-family="Menlo-Regular,Menlo" font-size="36.0" fill="#000000" transform="matrix(1.00, 0.00, -0.00, -1.00, 237.4, 158.5)">и</text><text xml:space="preserve" font-family="Menlo-Regular,Menlo" font-size="36.0" fill="#000000" transform="matrix(1.00, 0.00, -0.00, -1.00, 259.1, 158.5)">т</text><text xml:space="preserve" font-family="Menlo-Regular,Menlo" font-size="36.0" fill="#000000" transform="matrix(1.00, 0.00, -0.00, -1.00, 280.7, 158.5)">е</text><text xml:space="preserve" font-family="Menlo-Regular,Menlo" font-size="36.0" fill="#000000" transform="matrix(1.00, 0.00, -0.00, -1.00, 302.4, 158.5)">т</text><text xml:space="preserve" font-family="Menlo-Regular,Menlo" font-size="36.0" fill="#000000" transform="matrix(1.00, 0.00, -0.00, -1.00, 324.1, 158.5)">.</text></g></svg>