<?xml version="1.0" encoding="UTF-8" standalone="no"?><svg xmlns="http://www.w3.org/2000/svg" xmlns:xlink="http://www.w3.org/1999/xlink" clip-rule="evenodd" stroke-miterlimit="10" viewBox="0 0 1024 768"><desc>SVG generated by Keynote</desc><defs></defs><g transform="matrix(1.00, 0.00, -0.00, -1.00, 0.0, 768.0)"><path d="M 0.0 768.0 L 1024.0 768.0 L 1024.0 0.0 L 0.0 0.0 Z M 0.0 768.0 " fill="#DCDDE0"></path><text xml:space="preserve" font-family="Menlo-Regular,Menlo" font-size="80.0" fill="#000000" transform="matrix(1.00, 0.00, -0.00, -1.00, 198.9, 619.9)">R</text><text xml:space="preserve" font-family="Menlo-Regular,Menlo" font-size="80.0" fill="#000000" transform="matrix(1.00, 0.00, -0.00, -1.00, 247.1, 619.9)">a</text><text xml:space="preserve" font-family="Menlo-Regular,Menlo" font-size="80.0" fill="#000000" transform="matrix(1.00, 0.00, -0.00, -1.00, 295.3, 619.9)">i</text><text xml:space="preserve" font-family="Menlo-Regular,Menlo" font-size="80.0" fill="#000000" transform="matrix(1.00, 0.00, -0.00, -1.00, 343.4, 619.9)">l</text><text xml:space="preserve" font-family="Menlo-Regular,Menlo" font-size="80.0" fill="#000000" transform="matrix(1.00, 0.00, -0.00, -1.00, 391.6, 619.9)">s</text><text xml:space="preserve" font-family="Menlo-Regular,Menlo" font-size="80.0" fill="#000000" transform="matrix(1.00, 0.00, -0.00, -1.00, 439.8, 619.9)"> </text><text xml:space="preserve" font-family="Menlo-Regular,Menlo" font-size="80.0" fill="#000000" transform="matrix(1.00, 0.00, -0.00, -1.00, 488.0, 619.9)">E</text><text xml:space="preserve" font-family="Menlo-Regular,Menlo" font-size="80.0" fill="#000000" transform="matrix(1.00, 0.00, -0.00, -1.00, 536.1, 619.9)">n</text><text xml:space="preserve" font-family="Menlo-Regular,Menlo" font-size="80.0" fill="#000000" transform="matrix(1.00, 0.00, -0.00, -1.00, 584.3, 619.9)">g</text><text xml:space="preserve" font-family="Menlo-Regular,Menlo" font-size="80.0" fill="#000000" transform="matrix(1.00, 0.00, -0.00, -1.00, 632.5, 619.9)">i</text><text xml:space="preserve" font-family="Menlo-Regular,Menlo" font-size="80.0" fill="#000000" transform="matrix(1.00, 0.00, -0.00, -1.00, 680.7, 619.9)">n</text><text xml:space="preserve" font-family="Menlo-Regular,Menlo" font-size="80.0" fill="#000000" transform="matrix(1.00, 0.00, -0.00, -1.00, 728.8, 619.9)">e</text><text xml:space="preserve" font-family="Menlo-Regular,Menlo" font-size="80.0" fill="#000000" transform="matrix(1.00, 0.00, -0.00, -1.00, 777.0, 619.9)">s</text><text xml:space="preserve" font-family="Menlo-Regular,Menlo" font-size="34.9" fill="#000000" transform="matrix(1.00, 0.00, -0.00, -1.00, 79.0, 525.2)">1</text><text xml:space="preserve" font-family="Menlo-Regular,Menlo" font-size="34.9" fill="#000000" transform="matrix(1.00, 0.00, -0.00, -1.00, 100.0, 525.2)">.</text><text xml:space="preserve" font-family="Menlo-Regular,Menlo" font-size="34.9" fill="#000000" transform="matrix(1.00, 0.00, -0.00, -1.00, 127.5, 525.2)">Л</text><text xml:space="preserve" font-family="Menlo-Regular,Menlo" font-size="34.9" fill="#000000" transform="matrix(1.00, 0.00, -0.00, -1.00, 148.5, 525.2)">е</text><text xml:space="preserve" font-family="Menlo-Regular,Menlo" font-size="34.9" fill="#000000" transform="matrix(1.00, 0.00, -0.00, -1.00, 169.6, 525.2)">ж</text><text xml:space="preserve" font-family="Menlo-Regular,Menlo" font-size="34.9" fill="#000000" transform="matrix(1.00, 0.00, -0.00, -1.00, 190.6, 525.2)">и</text><text xml:space="preserve" font-family="Menlo-Regular,Menlo" font-size="34.9" fill="#000000" transform="matrix(1.00, 0.00, -0.00, -1.00, 211.6, 525.2)">т</text><text xml:space="preserve" font-family="Menlo-Regular,Menlo" font-size="34.9" fill="#000000" transform="matrix(1.00, 0.00, -0.00, -1.00, 232.6, 525.2)"> </text><text xml:space="preserve" font-family="Menlo-Regular,Menlo" font-size="34.9" fill="#000000" transform="matrix(1.00, 0.00, -0.00, -1.00, 253.7, 525.2)">в</text><text xml:space="preserve" font-family="Menlo-Regular,Menlo" font-size="34.9" fill="#000000" transform="matrix(1.00, 0.00, -0.00, -1.00, 274.7, 525.2)"> </text><text xml:space="preserve" font-family="Menlo-Regular,Menlo" font-size="34.9" fill="#000000" transform="matrix(1.00, 0.00, -0.00, -1.00, 295.7, 525.2)">о</text><text xml:space="preserve" font-family="Menlo-Regular,Menlo" font-size="34.9" fill="#000000" transform="matrix(1.00, 0.00, -0.00, -1.00, 316.7, 525.2)">с</text><text xml:space="preserve" font-family="Menlo-Regular,Menlo" font-size="34.9" fill="#000000" transform="matrix(1.00, 0.00, -0.00, -1.00, 337.8, 525.2)">н</text><text xml:space="preserve" font-family="Menlo-Regular,Menlo" font-size="34.9" fill="#000000" transform="matrix(1.00, 0.00, -0.00, -1.00, 358.8, 525.2)">о</text><text xml:space="preserve" font-family="Menlo-Regular,Menlo" font-size="34.9" fill="#000000" transform="matrix(1.00, 0.00, -0.00, -1.00, 379.8, 525.2)">в</text><text xml:space="preserve" font-family="Menlo-Regular,Menlo" font-size="34.9" fill="#000000" transform="matrix(1.00, 0.00, -0.00, -1.00, 400.9, 525.2)">е</text><text xml:space="preserve" font-family="Menlo-Regular,Menlo" font-size="34.9" fill="#000000" transform="matrix(1.00, 0.00, -0.00, -1.00, 421.9, 525.2)"> </text><text xml:space="preserve" font-family="Menlo-Regular,Menlo" font-size="34.9" fill="#000000" transform="matrix(1.00, 0.00, -0.00, -1.00, 442.9, 525.2)">л</text><text xml:space="preserve" font-family="Menlo-Regular,Menlo" font-size="34.9" fill="#000000" transform="matrix(1.00, 0.00, -0.00, -1.00, 463.9, 525.2)">ю</text><text xml:space="preserve" font-family="Menlo-Regular,Menlo" font-size="34.9" fill="#000000" transform="matrix(1.00, 0.00, -0.00, -1.00, 485.0, 525.2)">б</text><text xml:space="preserve" font-family="Menlo-Regular,Menlo" font-size="34.9" fill="#000000" transform="matrix(1.00, 0.00, -0.00, -1.00, 506.0, 525.2)">о</text><text xml:space="preserve" font-family="Menlo-Regular,Menlo" font-size="34.9" fill="#000000" transform="matrix(1.00, 0.00, -0.00, -1.00, 527.0, 525.2)">г</text><text xml:space="preserve" font-family="Menlo-Regular,Menlo" font-size="34.9" fill="#000000" transform="matrix(1.00, 0.00, -0.00, -1.00, 548.0, 525.2)">о</text><text xml:space="preserve" font-family="Menlo-Regular,Menlo" font-size="34.9" fill="#000000" transform="matrix(1.00, 0.00, -0.00, -1.00, 569.1, 525.2)"> </text><text xml:space="preserve" font-family="Menlo-Regular,Menlo" font-size="34.9" fill="#000000" transform="matrix(1.00, 0.00, -0.00, -1.00, 590.1, 525.2)">R</text><text xml:space="preserve" font-family="Menlo-Regular,Menlo" font-size="34.9" fill="#000000" transform="matrix(1.00, 0.00, -0.00, -1.00, 611.1, 525.2)">a</text><text xml:space="preserve" font-family="Menlo-Regular,Menlo" font-size="34.9" fill="#000000" transform="matrix(1.00, 0.00, -0.00, -1.00, 632.2, 525.2)">i</text><text xml:space="preserve" font-family="Menlo-Regular,Menlo" font-size="34.9" fill="#000000" transform="matrix(1.00, 0.00, -0.00, -1.00, 653.2, 525.2)">l</text><text xml:space="preserve" font-family="Menlo-Regular,Menlo" font-size="34.9" fill="#000000" transform="matrix(1.00, 0.00, -0.00, -1.00, 674.2, 525.2)">s</text><text xml:space="preserve" font-family="Menlo-Regular,Menlo" font-size="34.9" fill="#000000" transform="matrix(1.00, 0.00, -0.00, -1.00, 695.2, 525.2)">-</text><text xml:space="preserve" font-family="Menlo-Regular,Menlo" font-size="34.9" fill="#000000" transform="matrix(1.00, 0.00, -0.00, -1.00, 127.5, 485.2)">п</text><text xml:space="preserve" font-family="Menlo-Regular,Menlo" font-size="34.9" fill="#000000" transform="matrix(1.00, 0.00, -0.00, -1.00, 148.5, 485.2)">р</text><text xml:space="preserve" font-family="Menlo-Regular,Menlo" font-size="34.9" fill="#000000" transform="matrix(1.00, 0.00, -0.00, -1.00, 169.6, 485.2)">и</text><text xml:space="preserve" font-family="Menlo-Regular,Menlo" font-size="34.9" fill="#000000" transform="matrix(1.00, 0.00, -0.00, -1.00, 190.6, 485.2)">л</text><text xml:space="preserve" font-family="Menlo-Regular,Menlo" font-size="34.9" fill="#000000" transform="matrix(1.00, 0.00, -0.00, -1.00, 211.6, 485.2)">о</text><text xml:space="preserve" font-family="Menlo-Regular,Menlo" font-size="34.9" fill="#000000" transform="matrix(1.00, 0.00, -0.00, -1.00, 232.6, 485.2)">ж</text><text xml:space="preserve" font-family="Menlo-Regular,Menlo" font-size="34.9" fill="#000000" transform="matrix(1.00, 0.00, -0.00, -1.00, 253.7, 485.2)">е</text><text xml:space="preserve" font-family="Menlo-Regular,Menlo" font-size="34.9" fill="#000000" transform="matrix(1.00, 0.00, -0.00, -1.00, 274.7, 485.2)">н</text><text xml:space="preserve" font-family="Menlo-Regular,Menlo" font-size="34.9" fill="#000000" transform="matrix(1.00, 0.00, -0.00, -1.00, 295.7, 485.2)">и</text><text xml:space="preserve" font-family="Menlo-Regular,Menlo" font-size="34.9" fill="#000000" transform="matrix(1.00, 0.00, -0.00, -1.00, 316.7, 485.2)">я</text><text xml:space="preserve" font-family="Menlo-Regular,Menlo" font-size="34.9" fill="#000000" transform="matrix(1.00, 0.00, -0.00, -1.00, 337.7, 485.2)">.</text><text xml:space="preserve" font-family="Menlo-Regular,Menlo" font-size="34.9" fill="#000000" transform="matrix(1.00, 0.00, -0.00, -1.00, 358.8, 485.2)"> </text><text xml:space="preserve" font-family="Menlo-Regular,Menlo" font-size="34.9" fill="#000000" transform="matrix(1.00, 0.00, -0.00, -1.00, 79.0, 404.5)">2</text><text xml:space="preserve" font-family="Menlo-Regular,Menlo" font-size="34.9" fill="#000000" transform="matrix(1.00, 0.00, -0.00, -1.00, 100.0, 404.5)">.</text><text xml:space="preserve" font-family="Menlo-Regular,Menlo" font-size="34.9" fill="#000000" transform="matrix(1.00, 0.00, -0.00, -1.00, 127.5, 404.5)">С</text><text xml:space="preserve" font-family="Menlo-Regular,Menlo" font-size="34.9" fill="#000000" transform="matrix(1.00, 0.00, -0.00, -1.00, 148.5, 404.5)">у</text><text xml:space="preserve" font-family="Menlo-Regular,Menlo" font-size="34.9" fill="#000000" transform="matrix(1.00, 0.00, -0.00, -1.00, 169.6, 404.5)">щ</text><text xml:space="preserve" font-family="Menlo-Regular,Menlo" font-size="34.9" fill="#000000" transform="matrix(1.00, 0.00, -0.00, -1.00, 190.6, 404.5)">е</text><text xml:space="preserve" font-family="Menlo-Regular,Menlo" font-size="34.9" fill="#000000" transform="matrix(1.00, 0.00, -0.00, -1.00, 211.6, 404.5)">с</text><text xml:space="preserve" font-family="Menlo-Regular,Menlo" font-size="34.9" fill="#000000" transform="matrix(1.00, 0.00, -0.00, -1.00, 232.6, 404.5)">т</text><text xml:space="preserve" font-family="Menlo-Regular,Menlo" font-size="34.9" fill="#000000" transform="matrix(1.00, 0.00, -0.00, -1.00, 253.7, 404.5)">в</text><text xml:space="preserve" font-family="Menlo-Regular,Menlo" font-size="34.9" fill="#000000" transform="matrix(1.00, 0.00, -0.00, -1.00, 274.7, 404.5)">у</text><text xml:space="preserve" font-family="Menlo-Regular,Menlo" font-size="34.9" fill="#000000" transform="matrix(1.00, 0.00, -0.00, -1.00, 295.7, 404.5)">е</text><text xml:space="preserve" font-family="Menlo-Regular,Menlo" font-size="34.9" fill="#000000" transform="matrix(1.00, 0.00, -0.00, -1.00, 316.7, 404.5)">т</text><text xml:space="preserve" font-family="Menlo-Regular,Menlo" font-size="34.9" fill="#000000" transform="matrix(1.00, 0.00, -0.00, -1.00, 337.8, 404.5)"> </text><text xml:space="preserve" font-family="Menlo-Regular,Menlo" font-size="34.9" fill="#000000" transform="matrix(1.00, 0.00, -0.00, -1.00, 358.8, 404.5)">и</text><text xml:space="preserve" font-family="Menlo-Regular,Menlo" font-size="34.9" fill="#000000" transform="matrix(1.00, 0.00, -0.00, -1.00, 379.8, 404.5)">с</text><text xml:space="preserve" font-family="Menlo-Regular,Menlo" font-size="34.9" fill="#000000" transform="matrix(1.00, 0.00, -0.00, -1.00, 400.9, 404.5)">ч</text><text xml:space="preserve" font-family="Menlo-Regular,Menlo" font-size="34.9" fill="#000000" transform="matrix(1.00, 0.00, -0.00, -1.00, 421.9, 404.5)">е</text><text xml:space="preserve" font-family="Menlo-Regular,Menlo" font-size="34.9" fill="#000000" transform="matrix(1.00, 0.00, -0.00, -1.00, 442.9, 404.5)">р</text><text xml:space="preserve" font-family="Menlo-Regular,Menlo" font-size="34.9" fill="#000000" transform="matrix(1.00, 0.00, -0.00, -1.00, 463.9, 404.5)">п</text><text xml:space="preserve" font-family="Menlo-Regular,Menlo" font-size="34.9" fill="#000000" transform="matrix(1.00, 0.00, -0.00, -1.00, 485.0, 404.5)">ы</text><text xml:space="preserve" font-family="Menlo-Regular,Menlo" font-size="34.9" fill="#000000" transform="matrix(1.00, 0.00, -0.00, -1.00, 506.0, 404.5)">в</text><text xml:space="preserve" font-family="Menlo-Regular,Menlo" font-size="34.9" fill="#000000" transform="matrix(1.00, 0.00, -0.00, -1.00, 527.0, 404.5)">а</text><text xml:space="preserve" font-family="Menlo-Regular,Menlo" font-size="34.9" fill="#000000" transform="matrix(1.00, 0.00, -0.00, -1.00, 548.0, 404.5)">ю</text><text xml:space="preserve" font-family="Menlo-Regular,Menlo" font-size="34.9" fill="#000000" transform="matrix(1.00, 0.00, -0.00, -1.00, 569.1, 404.5)">щ</text><text xml:space="preserve" font-family="Menlo-Regular,Menlo" font-size="34.9" fill="#000000" transform="matrix(1.00, 0.00, -0.00, -1.00, 590.1, 404.5)">а</text><text xml:space="preserve" font-family="Menlo-Regular,Menlo" font-size="34.9" fill="#000000" transform="matrix(1.00, 0.00, -0.00, -1.00, 611.1, 404.5)">я</text><text xml:space="preserve" font-family="Menlo-Regular,Menlo" font-size="34.9" fill="#000000" transform="matrix(1.00, 0.00, -0.00, -1.00, 632.2, 404.5)"> </text><text xml:space="preserve" font-family="Menlo-Regular,Menlo" font-size="34.9" fill="#000000" transform="matrix(1.00, 0.00, -0.00, -1.00, 653.2, 404.5)">д</text><text xml:space="preserve" font-family="Menlo-Regular,Menlo" font-size="34.9" fill="#000000" transform="matrix(1.00, 0.00, -0.00, -1.00, 674.2, 404.5)">о</text><text xml:space="preserve" font-family="Menlo-Regular,Menlo" font-size="34.9" fill="#000000" transform="matrix(1.00, 0.00, -0.00, -1.00, 695.2, 404.5)">к</text><text xml:space="preserve" font-family="Menlo-Regular,Menlo" font-size="34.9" fill="#000000" transform="matrix(1.00, 0.00, -0.00, -1.00, 716.3, 404.5)">у</text><text xml:space="preserve" font-family="Menlo-Regular,Menlo" font-size="34.9" fill="#000000" transform="matrix(1.00, 0.00, -0.00, -1.00, 737.3, 404.5)">м</text><text xml:space="preserve" font-family="Menlo-Regular,Menlo" font-size="34.9" fill="#000000" transform="matrix(1.00, 0.00, -0.00, -1.00, 758.3, 404.5)">е</text><text xml:space="preserve" font-family="Menlo-Regular,Menlo" font-size="34.9" fill="#000000" transform="matrix(1.00, 0.00, -0.00, -1.00, 779.3, 404.5)">н</text><text xml:space="preserve" font-family="Menlo-Regular,Menlo" font-size="34.9" fill="#000000" transform="matrix(1.00, 0.00, -0.00, -1.00, 800.4, 404.5)">т</text><text xml:space="preserve" font-family="Menlo-Regular,Menlo" font-size="34.9" fill="#000000" transform="matrix(1.00, 0.00, -0.00, -1.00, 821.4, 404.5)">а</text><text xml:space="preserve" font-family="Menlo-Regular,Menlo" font-size="34.9" fill="#000000" transform="matrix(1.00, 0.00, -0.00, -1.00, 842.4, 404.5)">ц</text><text xml:space="preserve" font-family="Menlo-Regular,Menlo" font-size="34.9" fill="#000000" transform="matrix(1.00, 0.00, -0.00, -1.00, 863.4, 404.5)">и</text><text xml:space="preserve" font-family="Menlo-Regular,Menlo" font-size="34.9" fill="#000000" transform="matrix(1.00, 0.00, -0.00, -1.00, 884.5, 404.5)">я</text><text xml:space="preserve" font-family="Menlo-Regular,Menlo" font-size="34.9" fill="#000000" transform="matrix(1.00, 0.00, -0.00, -1.00, 905.5, 404.5)"> </text><text xml:space="preserve" font-family="Menlo-Regular,Menlo" font-size="34.9" fill="#000000" transform="matrix(1.00, 0.00, -0.00, -1.00, 127.5, 364.5)">и</text><text xml:space="preserve" font-family="Menlo-Regular,Menlo" font-size="34.9" fill="#000000" transform="matrix(1.00, 0.00, -0.00, -1.00, 148.5, 364.5)"> </text><text xml:space="preserve" font-family="Menlo-Regular,Menlo" font-size="34.9" fill="#000000" transform="matrix(1.00, 0.00, -0.00, -1.00, 169.6, 364.5)">б</text><text xml:space="preserve" font-family="Menlo-Regular,Menlo" font-size="34.9" fill="#000000" transform="matrix(1.00, 0.00, -0.00, -1.00, 190.6, 364.5)">о</text><text xml:space="preserve" font-family="Menlo-Regular,Menlo" font-size="34.9" fill="#000000" transform="matrix(1.00, 0.00, -0.00, -1.00, 211.6, 364.5)">л</text><text xml:space="preserve" font-family="Menlo-Regular,Menlo" font-size="34.9" fill="#000000" transform="matrix(1.00, 0.00, -0.00, -1.00, 232.6, 364.5)">ь</text><text xml:space="preserve" font-family="Menlo-Regular,Menlo" font-size="34.9" fill="#000000" transform="matrix(1.00, 0.00, -0.00, -1.00, 253.7, 364.5)">ш</text><text xml:space="preserve" font-family="Menlo-Regular,Menlo" font-size="34.9" fill="#000000" transform="matrix(1.00, 0.00, -0.00, -1.00, 274.7, 364.5)">о</text><text xml:space="preserve" font-family="Menlo-Regular,Menlo" font-size="34.9" fill="#000000" transform="matrix(1.00, 0.00, -0.00, -1.00, 295.7, 364.5)">е</text><text xml:space="preserve" font-family="Menlo-Regular,Menlo" font-size="34.9" fill="#000000" transform="matrix(1.00, 0.00, -0.00, -1.00, 316.7, 364.5)"> </text><text xml:space="preserve" font-family="Menlo-Regular,Menlo" font-size="34.9" fill="#000000" transform="matrix(1.00, 0.00, -0.00, -1.00, 337.8, 364.5)">к</text><text xml:space="preserve" font-family="Menlo-Regular,Menlo" font-size="34.9" fill="#000000" transform="matrix(1.00, 0.00, -0.00, -1.00, 358.8, 364.5)">о</text><text xml:space="preserve" font-family="Menlo-Regular,Menlo" font-size="34.9" fill="#000000" transform="matrix(1.00, 0.00, -0.00, -1.00, 379.8, 364.5)">л</text><text xml:space="preserve" font-family="Menlo-Regular,Menlo" font-size="34.9" fill="#000000" transform="matrix(1.00, 0.00, -0.00, -1.00, 400.9, 364.5)">и</text><text xml:space="preserve" font-family="Menlo-Regular,Menlo" font-size="34.9" fill="#000000" transform="matrix(1.00, 0.00, -0.00, -1.00, 421.9, 364.5)">ч</text><text xml:space="preserve" font-family="Menlo-Regular,Menlo" font-size="34.9" fill="#000000" transform="matrix(1.00, 0.00, -0.00, -1.00, 442.9, 364.5)">е</text><text xml:space="preserve" font-family="Menlo-Regular,Menlo" font-size="34.9" fill="#000000" transform="matrix(1.00, 0.00, -0.00, -1.00, 463.9, 364.5)">с</text><text xml:space="preserve" font-family="Menlo-Regular,Menlo" font-size="34.9" fill="#000000" transform="matrix(1.00, 0.00, -0.00, -1.00, 485.0, 364.5)">т</text><text xml:space="preserve" font-family="Menlo-Regular,Menlo" font-size="34.9" fill="#000000" transform="matrix(1.00, 0.00, -0.00, -1.00, 506.0, 364.5)">в</text><text xml:space="preserve" font-family="Menlo-Regular,Menlo" font-size="34.9" fill="#000000" transform="matrix(1.00, 0.00, -0.00, -1.00, 527.0, 364.5)">о</text><text xml:space="preserve" font-family="Menlo-Regular,Menlo" font-size="34.9" fill="#000000" transform="matrix(1.00, 0.00, -0.00, -1.00, 548.0, 364.5)"> </text><text xml:space="preserve" font-family="Menlo-Regular,Menlo" font-size="34.9" fill="#000000" transform="matrix(1.00, 0.00, -0.00, -1.00, 569.1, 364.5)">п</text><text xml:space="preserve" font-family="Menlo-Regular,Menlo" font-size="34.9" fill="#000000" transform="matrix(1.00, 0.00, -0.00, -1.00, 590.1, 364.5)">р</text><text xml:space="preserve" font-family="Menlo-Regular,Menlo" font-size="34.9" fill="#000000" transform="matrix(1.00, 0.00, -0.00, -1.00, 611.1, 364.5)">и</text><text xml:space="preserve" font-family="Menlo-Regular,Menlo" font-size="34.9" fill="#000000" transform="matrix(1.00, 0.00, -0.00, -1.00, 632.2, 364.5)">м</text><text xml:space="preserve" font-family="Menlo-Regular,Menlo" font-size="34.9" fill="#000000" transform="matrix(1.00, 0.00, -0.00, -1.00, 653.2, 364.5)">е</text><text xml:space="preserve" font-family="Menlo-Regular,Menlo" font-size="34.9" fill="#000000" transform="matrix(1.00, 0.00, -0.00, -1.00, 674.2, 364.5)">р</text><text xml:space="preserve" font-family="Menlo-Regular,Menlo" font-size="34.9" fill="#000000" transform="matrix(1.00, 0.00, -0.00, -1.00, 695.2, 364.5)">о</text><text xml:space="preserve" font-family="Menlo-Regular,Menlo" font-size="34.9" fill="#000000" transform="matrix(1.00, 0.00, -0.00, -1.00, 716.3, 364.5)">в</text><text xml:space="preserve" font-family="Menlo-Regular,Menlo" font-size="34.9" fill="#000000" transform="matrix(1.00, 0.00, -0.00, -1.00, 737.3, 364.5)"> </text><text xml:space="preserve" font-family="Menlo-Regular,Menlo" font-size="34.9" fill="#000000" transform="matrix(1.00, 0.00, -0.00, -1.00, 127.5, 324.5)">р</text><text xml:space="preserve" font-family="Menlo-Regular,Menlo" font-size="34.9" fill="#000000" transform="matrix(1.00, 0.00, -0.00, -1.00, 148.5, 324.5)">е</text><text xml:space="preserve" font-family="Menlo-Regular,Menlo" font-size="34.9" fill="#000000" transform="matrix(1.00, 0.00, -0.00, -1.00, 169.6, 324.5)">а</text><text xml:space="preserve" font-family="Menlo-Regular,Menlo" font-size="34.9" fill="#000000" transform="matrix(1.00, 0.00, -0.00, -1.00, 190.6, 324.5)">л</text><text xml:space="preserve" font-family="Menlo-Regular,Menlo" font-size="34.9" fill="#000000" transform="matrix(1.00, 0.00, -0.00, -1.00, 211.6, 324.5)">и</text><text xml:space="preserve" font-family="Menlo-Regular,Menlo" font-size="34.9" fill="#000000" transform="matrix(1.00, 0.00, -0.00, -1.00, 232.6, 324.5)">з</text><text xml:space="preserve" font-family="Menlo-Regular,Menlo" font-size="34.9" fill="#000000" transform="matrix(1.00, 0.00, -0.00, -1.00, 253.7, 324.5)">а</text><text xml:space="preserve" font-family="Menlo-Regular,Menlo" font-size="34.9" fill="#000000" transform="matrix(1.00, 0.00, -0.00, -1.00, 274.7, 324.5)">ц</text><text xml:space="preserve" font-family="Menlo-Regular,Menlo" font-size="34.9" fill="#000000" transform="matrix(1.00, 0.00, -0.00, -1.00, 295.7, 324.5)">и</text><text xml:space="preserve" font-family="Menlo-Regular,Menlo" font-size="34.9" fill="#000000" transform="matrix(1.00, 0.00, -0.00, -1.00, 316.7, 324.5)">и</text><text xml:space="preserve" font-family="Menlo-Regular,Menlo" font-size="34.9" fill="#000000" transform="matrix(1.00, 0.00, -0.00, -1.00, 337.8, 324.5)"> </text><text xml:space="preserve" font-family="Menlo-Regular,Menlo" font-size="34.9" fill="#000000" transform="matrix(1.00, 0.00, -0.00, -1.00, 358.8, 324.5)">с</text><text xml:space="preserve" font-family="Menlo-Regular,Menlo" font-size="34.9" fill="#000000" transform="matrix(1.00, 0.00, -0.00, -1.00, 379.8, 324.5)"> </text><text xml:space="preserve" font-family="Menlo-Regular,Menlo" font-size="34.9" fill="#000000" transform="matrix(1.00, 0.00, -0.00, -1.00, 400.9, 324.5)">о</text><text xml:space="preserve" font-family="Menlo-Regular,Menlo" font-size="34.9" fill="#000000" transform="matrix(1.00, 0.00, -0.00, -1.00, 421.9, 324.5)">т</text><text xml:space="preserve" font-family="Menlo-Regular,Menlo" font-size="34.9" fill="#000000" transform="matrix(1.00, 0.00, -0.00, -1.00, 442.9, 324.5)">к</text><text xml:space="preserve" font-family="Menlo-Regular,Menlo" font-size="34.9" fill="#000000" transform="matrix(1.00, 0.00, -0.00, -1.00, 463.9, 324.5)">р</text><text xml:space="preserve" font-family="Menlo-Regular,Menlo" font-size="34.9" fill="#000000" transform="matrix(1.00, 0.00, -0.00, -1.00, 485.0, 324.5)">ы</text><text xml:space="preserve" font-family="Menlo-Regular,Menlo" font-size="34.9" fill="#000000" transform="matrix(1.00, 0.00, -0.00, -1.00, 506.0, 324.5)">т</text><text xml:space="preserve" font-family="Menlo-Regular,Menlo" font-size="34.9" fill="#000000" transform="matrix(1.00, 0.00, -0.00, -1.00, 527.0, 324.5)">ы</text><text xml:space="preserve" font-family="Menlo-Regular,Menlo" font-size="34.9" fill="#000000" transform="matrix(1.00, 0.00, -0.00, -1.00, 548.0, 324.5)">м</text><text xml:space="preserve" font-family="Menlo-Regular,Menlo" font-size="34.9" fill="#000000" transform="matrix(1.00, 0.00, -0.00, -1.00, 569.1, 324.5)"> </text><text xml:space="preserve" font-family="Menlo-Regular,Menlo" font-size="34.9" fill="#000000" transform="matrix(1.00, 0.00, -0.00, -1.00, 590.1, 324.5)">и</text><text xml:space="preserve" font-family="Menlo-Regular,Menlo" font-size="34.9" fill="#000000" transform="matrix(1.00, 0.00, -0.00, -1.00, 611.1, 324.5)">с</text><text xml:space="preserve" font-family="Menlo-Regular,Menlo" font-size="34.9" fill="#000000" transform="matrix(1.00, 0.00, -0.00, -1.00, 632.2, 324.5)">х</text><text xml:space="preserve" font-family="Menlo-Regular,Menlo" font-size="34.9" fill="#000000" transform="matrix(1.00, 0.00, -0.00, -1.00, 653.2, 324.5)">о</text><text xml:space="preserve" font-family="Menlo-Regular,Menlo" font-size="34.9" fill="#000000" transform="matrix(1.00, 0.00, -0.00, -1.00, 674.2, 324.5)">д</text><text xml:space="preserve" font-family="Menlo-Regular,Menlo" font-size="34.9" fill="#000000" transform="matrix(1.00, 0.00, -0.00, -1.00, 695.2, 324.5)">н</text><text xml:space="preserve" font-family="Menlo-Regular,Menlo" font-size="34.9" fill="#000000" transform="matrix(1.00, 0.00, -0.00, -1.00, 716.3, 324.5)">ы</text><text xml:space="preserve" font-family="Menlo-Regular,Menlo" font-size="34.9" fill="#000000" transform="matrix(1.00, 0.00, -0.00, -1.00, 737.3, 324.5)">м</text><text xml:space="preserve" font-family="Menlo-Regular,Menlo" font-size="34.9" fill="#000000" transform="matrix(1.00, 0.00, -0.00, -1.00, 758.3, 324.5)"> </text><text xml:space="preserve" font-family="Menlo-Regular,Menlo" font-size="34.9" fill="#000000" transform="matrix(1.00, 0.00, -0.00, -1.00, 779.3, 324.5)">к</text><text xml:space="preserve" font-family="Menlo-Regular,Menlo" font-size="34.9" fill="#000000" transform="matrix(1.00, 0.00, -0.00, -1.00, 800.4, 324.5)">о</text><text xml:space="preserve" font-family="Menlo-Regular,Menlo" font-size="34.9" fill="#000000" transform="matrix(1.00, 0.00, -0.00, -1.00, 821.4, 324.5)">д</text><text xml:space="preserve" font-family="Menlo-Regular,Menlo" font-size="34.9" fill="#000000" transform="matrix(1.00, 0.00, -0.00, -1.00, 842.4, 324.5)">о</text><text xml:space="preserve" font-family="Menlo-Regular,Menlo" font-size="34.9" fill="#000000" transform="matrix(1.00, 0.00, -0.00, -1.00, 863.4, 324.5)">м</text><text xml:space="preserve" font-family="Menlo-Regular,Menlo" font-size="34.9" fill="#000000" transform="matrix(1.00, 0.00, -0.00, -1.00, 884.5, 324.5)">.</text><text xml:space="preserve" font-family="Menlo-Regular,Menlo" font-size="34.9" fill="#000000" transform="matrix(1.00, 0.00, -0.00, -1.00, 905.5, 324.5)"> </text><text xml:space="preserve" font-family="Menlo-Regular,Menlo" font-size="34.9" fill="#000000" transform="matrix(1.00, 0.00, -0.00, -1.00, 79.0, 243.8)">3</text><text xml:space="preserve" font-family="Menlo-Regular,Menlo" font-size="34.9" fill="#000000" transform="matrix(1.00, 0.00, -0.00, -1.00, 100.0, 243.8)">.</text><text xml:space="preserve" font-family="Menlo-Regular,Menlo" font-size="34.9" fill="#000000" transform="matrix(1.00, 0.00, -0.00, -1.00, 127.5, 243.8)">И</text><text xml:space="preserve" font-family="Menlo-Regular,Menlo" font-size="34.9" fill="#000000" transform="matrix(1.00, 0.00, -0.00, -1.00, 148.5, 243.8)">м</text><text xml:space="preserve" font-family="Menlo-Regular,Menlo" font-size="34.9" fill="#000000" transform="matrix(1.00, 0.00, -0.00, -1.00, 169.6, 243.8)">е</text><text xml:space="preserve" font-family="Menlo-Regular,Menlo" font-size="34.9" fill="#000000" transform="matrix(1.00, 0.00, -0.00, -1.00, 190.6, 243.8)">е</text><text xml:space="preserve" font-family="Menlo-Regular,Menlo" font-size="34.9" fill="#000000" transform="matrix(1.00, 0.00, -0.00, -1.00, 211.6, 243.8)">т</text><text xml:space="preserve" font-family="Menlo-Regular,Menlo" font-size="34.9" fill="#000000" transform="matrix(1.00, 0.00, -0.00, -1.00, 232.6, 243.8)">с</text><text xml:space="preserve" font-family="Menlo-Regular,Menlo" font-size="34.9" fill="#000000" transform="matrix(1.00, 0.00, -0.00, -1.00, 253.7, 243.8)">я</text><text xml:space="preserve" font-family="Menlo-Regular,Menlo" font-size="34.9" fill="#000000" transform="matrix(1.00, 0.00, -0.00, -1.00, 274.7, 243.8)"> </text><text xml:space="preserve" font-family="Menlo-Regular,Menlo" font-size="34.9" fill="#000000" transform="matrix(1.00, 0.00, -0.00, -1.00, 295.7, 243.8)">с</text><text xml:space="preserve" font-family="Menlo-Regular,Menlo" font-size="34.9" fill="#000000" transform="matrix(1.00, 0.00, -0.00, -1.00, 316.7, 243.8)">т</text><text xml:space="preserve" font-family="Menlo-Regular,Menlo" font-size="34.9" fill="#000000" transform="matrix(1.00, 0.00, -0.00, -1.00, 337.8, 243.8)">р</text><text xml:space="preserve" font-family="Menlo-Regular,Menlo" font-size="34.9" fill="#000000" transform="matrix(1.00, 0.00, -0.00, -1.00, 358.8, 243.8)">о</text><text xml:space="preserve" font-family="Menlo-Regular,Menlo" font-size="34.9" fill="#000000" transform="matrix(1.00, 0.00, -0.00, -1.00, 379.8, 243.8)">г</text><text xml:space="preserve" font-family="Menlo-Regular,Menlo" font-size="34.9" fill="#000000" transform="matrix(1.00, 0.00, -0.00, -1.00, 400.9, 243.8)">а</text><text xml:space="preserve" font-family="Menlo-Regular,Menlo" font-size="34.9" fill="#000000" transform="matrix(1.00, 0.00, -0.00, -1.00, 421.9, 243.8)">я</text><text xml:space="preserve" font-family="Menlo-Regular,Menlo" font-size="34.9" fill="#000000" transform="matrix(1.00, 0.00, -0.00, -1.00, 442.9, 243.8)"> </text><text xml:space="preserve" font-family="Menlo-Regular,Menlo" font-size="34.9" fill="#000000" transform="matrix(1.00, 0.00, -0.00, -1.00, 463.9, 243.8)">р</text><text xml:space="preserve" font-family="Menlo-Regular,Menlo" font-size="34.9" fill="#000000" transform="matrix(1.00, 0.00, -0.00, -1.00, 485.0, 243.8)">е</text><text xml:space="preserve" font-family="Menlo-Regular,Menlo" font-size="34.9" fill="#000000" transform="matrix(1.00, 0.00, -0.00, -1.00, 506.0, 243.8)">г</text><text xml:space="preserve" font-family="Menlo-Regular,Menlo" font-size="34.9" fill="#000000" transform="matrix(1.00, 0.00, -0.00, -1.00, 527.0, 243.8)">л</text><text xml:space="preserve" font-family="Menlo-Regular,Menlo" font-size="34.9" fill="#000000" transform="matrix(1.00, 0.00, -0.00, -1.00, 548.0, 243.8)">а</text><text xml:space="preserve" font-family="Menlo-Regular,Menlo" font-size="34.9" fill="#000000" transform="matrix(1.00, 0.00, -0.00, -1.00, 569.1, 243.8)">м</text><text xml:space="preserve" font-family="Menlo-Regular,Menlo" font-size="34.9" fill="#000000" transform="matrix(1.00, 0.00, -0.00, -1.00, 590.1, 243.8)">е</text><text xml:space="preserve" font-family="Menlo-Regular,Menlo" font-size="34.9" fill="#000000" transform="matrix(1.00, 0.00, -0.00, -1.00, 611.1, 243.8)">н</text><text xml:space="preserve" font-family="Menlo-Regular,Menlo" font-size="34.9" fill="#000000" transform="matrix(1.00, 0.00, -0.00, -1.00, 632.2, 243.8)">т</text><text xml:space="preserve" font-family="Menlo-Regular,Menlo" font-size="34.9" fill="#000000" transform="matrix(1.00, 0.00, -0.00, -1.00, 653.2, 243.8)">а</text><text xml:space="preserve" font-family="Menlo-Regular,Menlo" font-size="34.9" fill="#000000" transform="matrix(1.00, 0.00, -0.00, -1.00, 674.2, 243.8)">ц</text><text xml:space="preserve" font-family="Menlo-Regular,Menlo" font-size="34.9" fill="#000000" transform="matrix(1.00, 0.00, -0.00, -1.00, 695.2, 243.8)">и</text><text xml:space="preserve" font-family="Menlo-Regular,Menlo" font-size="34.9" fill="#000000" transform="matrix(1.00, 0.00, -0.00, -1.00, 716.3, 243.8)">я</text><text xml:space="preserve" font-family="Menlo-Regular,Menlo" font-size="34.9" fill="#000000" transform="matrix(1.00, 0.00, -0.00, -1.00, 737.3, 243.8)"> </text><text xml:space="preserve" font-family="Menlo-Regular,Menlo" font-size="34.9" fill="#000000" transform="matrix(1.00, 0.00, -0.00, -1.00, 127.5, 203.8)">с</text><text xml:space="preserve" font-family="Menlo-Regular,Menlo" font-size="34.9" fill="#000000" transform="matrix(1.00, 0.00, -0.00, -1.00, 148.5, 203.8)">т</text><text xml:space="preserve" font-family="Menlo-Regular,Menlo" font-size="34.9" fill="#000000" transform="matrix(1.00, 0.00, -0.00, -1.00, 169.6, 203.8)">р</text><text xml:space="preserve" font-family="Menlo-Regular,Menlo" font-size="34.9" fill="#000000" transform="matrix(1.00, 0.00, -0.00, -1.00, 190.6, 203.8)">у</text><text xml:space="preserve" font-family="Menlo-Regular,Menlo" font-size="34.9" fill="#000000" transform="matrix(1.00, 0.00, -0.00, -1.00, 211.6, 203.8)">к</text><text xml:space="preserve" font-family="Menlo-Regular,Menlo" font-size="34.9" fill="#000000" transform="matrix(1.00, 0.00, -0.00, -1.00, 232.6, 203.8)">т</text><text xml:space="preserve" font-family="Menlo-Regular,Menlo" font-size="34.9" fill="#000000" transform="matrix(1.00, 0.00, -0.00, -1.00, 253.7, 203.8)">у</text><text xml:space="preserve" font-family="Menlo-Regular,Menlo" font-size="34.9" fill="#000000" transform="matrix(1.00, 0.00, -0.00, -1.00, 274.7, 203.8)">р</text><text xml:space="preserve" font-family="Menlo-Regular,Menlo" font-size="34.9" fill="#000000" transform="matrix(1.00, 0.00, -0.00, -1.00, 295.7, 203.8)">ы</text><text xml:space="preserve" font-family="Menlo-Regular,Menlo" font-size="34.9" fill="#000000" transform="matrix(1.00, 0.00, -0.00, -1.00, 316.7, 203.8)"> </text><text xml:space="preserve" font-family="Menlo-Regular,Menlo" font-size="34.9" fill="#000000" transform="matrix(1.00, 0.00, -0.00, -1.00, 337.8, 203.8)">п</text><text xml:space="preserve" font-family="Menlo-Regular,Menlo" font-size="34.9" fill="#000000" transform="matrix(1.00, 0.00, -0.00, -1.00, 358.8, 203.8)">р</text><text xml:space="preserve" font-family="Menlo-Regular,Menlo" font-size="34.9" fill="#000000" transform="matrix(1.00, 0.00, -0.00, -1.00, 379.8, 203.8)">и</text><text xml:space="preserve" font-family="Menlo-Regular,Menlo" font-size="34.9" fill="#000000" transform="matrix(1.00, 0.00, -0.00, -1.00, 400.9, 203.8)">л</text><text xml:space="preserve" font-family="Menlo-Regular,Menlo" font-size="34.9" fill="#000000" transform="matrix(1.00, 0.00, -0.00, -1.00, 421.9, 203.8)">о</text><text xml:space="preserve" font-family="Menlo-Regular,Menlo" font-size="34.9" fill="#000000" transform="matrix(1.00, 0.00, -0.00, -1.00, 442.9, 203.8)">ж</text><text xml:space="preserve" font-family="Menlo-Regular,Menlo" font-size="34.9" fill="#000000" transform="matrix(1.00, 0.00, -0.00, -1.00, 463.9, 203.8)">е</text><text xml:space="preserve" font-family="Menlo-Regular,Menlo" font-size="34.9" fill="#000000" transform="matrix(1.00, 0.00, -0.00, -1.00, 485.0, 203.8)">н</text><text xml:space="preserve" font-family="Menlo-Regular,Menlo" font-size="34.9" fill="#000000" transform="matrix(1.00, 0.00, -0.00, -1.00, 506.0, 203.8)">и</text><text xml:space="preserve" font-family="Menlo-Regular,Menlo" font-size="34.9" fill="#000000" transform="matrix(1.00, 0.00, -0.00, -1.00, 527.0, 203.8)">я</text><text xml:space="preserve" font-family="Menlo-Regular,Menlo" font-size="34.9" fill="#000000" transform="matrix(1.00, 0.00, -0.00, -1.00, 548.0, 203.8)">.</text><text xml:space="preserve" font-family="Menlo-Regular,Menlo" font-size="34.9" fill="#000000" transform="matrix(1.00, 0.00, -0.00, -1.00, 569.1, 203.8)"> </text><text xml:space="preserve" font-family="Menlo-Regular,Menlo" font-size="34.9" fill="#000000" transform="matrix(1.00, 0.00, -0.00, -1.00, 79.0, 123.0)">4</text><text xml:space="preserve" font-family="Menlo-Regular,Menlo" font-size="34.9" fill="#000000" transform="matrix(1.00, 0.00, -0.00, -1.00, 100.0, 123.0)">.</text><text xml:space="preserve" font-family="Menlo-Regular,Menlo" font-size="34.9" fill="#000000" transform="matrix(1.00, 0.00, -0.00, -1.00, 127.5, 123.0)">С</text><text xml:space="preserve" font-family="Menlo-Regular,Menlo" font-size="34.9" fill="#000000" transform="matrix(1.00, 0.00, -0.00, -1.00, 148.5, 123.0)">у</text><text xml:space="preserve" font-family="Menlo-Regular,Menlo" font-size="34.9" fill="#000000" transform="matrix(1.00, 0.00, -0.00, -1.00, 169.6, 123.0)">щ</text><text xml:space="preserve" font-family="Menlo-Regular,Menlo" font-size="34.9" fill="#000000" transform="matrix(1.00, 0.00, -0.00, -1.00, 190.6, 123.0)">е</text><text xml:space="preserve" font-family="Menlo-Regular,Menlo" font-size="34.9" fill="#000000" transform="matrix(1.00, 0.00, -0.00, -1.00, 211.6, 123.0)">с</text><text xml:space="preserve" font-family="Menlo-Regular,Menlo" font-size="34.9" fill="#000000" transform="matrix(1.00, 0.00, -0.00, -1.00, 232.6, 123.0)">т</text><text xml:space="preserve" font-family="Menlo-Regular,Menlo" font-size="34.9" fill="#000000" transform="matrix(1.00, 0.00, -0.00, -1.00, 253.7, 123.0)">в</text><text xml:space="preserve" font-family="Menlo-Regular,Menlo" font-size="34.9" fill="#000000" transform="matrix(1.00, 0.00, -0.00, -1.00, 274.7, 123.0)">у</text><text xml:space="preserve" font-family="Menlo-Regular,Menlo" font-size="34.9" fill="#000000" transform="matrix(1.00, 0.00, -0.00, -1.00, 295.7, 123.0)">ю</text><text xml:space="preserve" font-family="Menlo-Regular,Menlo" font-size="34.9" fill="#000000" transform="matrix(1.00, 0.00, -0.00, -1.00, 316.7, 123.0)">т</text><text xml:space="preserve" font-family="Menlo-Regular,Menlo" font-size="34.9" fill="#000000" transform="matrix(1.00, 0.00, -0.00, -1.00, 337.8, 123.0)"> </text><text xml:space="preserve" font-family="Menlo-Regular,Menlo" font-size="34.9" fill="#000000" transform="matrix(1.00, 0.00, -0.00, -1.00, 358.8, 123.0)">г</text><text xml:space="preserve" font-family="Menlo-Regular,Menlo" font-size="34.9" fill="#000000" transform="matrix(1.00, 0.00, -0.00, -1.00, 379.8, 123.0)">е</text><text xml:space="preserve" font-family="Menlo-Regular,Menlo" font-size="34.9" fill="#000000" transform="matrix(1.00, 0.00, -0.00, -1.00, 400.9, 123.0)">н</text><text xml:space="preserve" font-family="Menlo-Regular,Menlo" font-size="34.9" fill="#000000" transform="matrix(1.00, 0.00, -0.00, -1.00, 421.9, 123.0)">е</text><text xml:space="preserve" font-family="Menlo-Regular,Menlo" font-size="34.9" fill="#000000" transform="matrix(1.00, 0.00, -0.00, -1.00, 442.9, 123.0)">р</text><text xml:space="preserve" font-family="Menlo-Regular,Menlo" font-size="34.9" fill="#000000" transform="matrix(1.00, 0.00, -0.00, -1.00, 463.9, 123.0)">а</text><text xml:space="preserve" font-family="Menlo-Regular,Menlo" font-size="34.9" fill="#000000" transform="matrix(1.00, 0.00, -0.00, -1.00, 485.0, 123.0)">т</text><text xml:space="preserve" font-family="Menlo-Regular,Menlo" font-size="34.9" fill="#000000" transform="matrix(1.00, 0.00, -0.00, -1.00, 506.0, 123.0)">о</text><text xml:space="preserve" font-family="Menlo-Regular,Menlo" font-size="34.9" fill="#000000" transform="matrix(1.00, 0.00, -0.00, -1.00, 527.0, 123.0)">р</text><text xml:space="preserve" font-family="Menlo-Regular,Menlo" font-size="34.9" fill="#000000" transform="matrix(1.00, 0.00, -0.00, -1.00, 548.0, 123.0)">ы</text><text xml:space="preserve" font-family="Menlo-Regular,Menlo" font-size="34.9" fill="#000000" transform="matrix(1.00, 0.00, -0.00, -1.00, 569.1, 123.0)"> </text><text xml:space="preserve" font-family="Menlo-Regular,Menlo" font-size="34.9" fill="#000000" transform="matrix(1.00, 0.00, -0.00, -1.00, 590.1, 123.0)">с</text><text xml:space="preserve" font-family="Menlo-Regular,Menlo" font-size="34.9" fill="#000000" transform="matrix(1.00, 0.00, -0.00, -1.00, 611.1, 123.0)">о</text><text xml:space="preserve" font-family="Menlo-Regular,Menlo" font-size="34.9" fill="#000000" transform="matrix(1.00, 0.00, -0.00, -1.00, 632.2, 123.0)">с</text><text xml:space="preserve" font-family="Menlo-Regular,Menlo" font-size="34.9" fill="#000000" transform="matrix(1.00, 0.00, -0.00, -1.00, 653.2, 123.0)">т</text><text xml:space="preserve" font-family="Menlo-Regular,Menlo" font-size="34.9" fill="#000000" transform="matrix(1.00, 0.00, -0.00, -1.00, 674.2, 123.0)">а</text><text xml:space="preserve" font-family="Menlo-Regular,Menlo" font-size="34.9" fill="#000000" transform="matrix(1.00, 0.00, -0.00, -1.00, 695.2, 123.0)">в</text><text xml:space="preserve" font-family="Menlo-Regular,Menlo" font-size="34.9" fill="#000000" transform="matrix(1.00, 0.00, -0.00, -1.00, 716.3, 123.0)">н</text><text xml:space="preserve" font-family="Menlo-Regular,Menlo" font-size="34.9" fill="#000000" transform="matrix(1.00, 0.00, -0.00, -1.00, 737.3, 123.0)">ы</text><text xml:space="preserve" font-family="Menlo-Regular,Menlo" font-size="34.9" fill="#000000" transform="matrix(1.00, 0.00, -0.00, -1.00, 758.3, 123.0)">х</text><text xml:space="preserve" font-family="Menlo-Regular,Menlo" font-size="34.9" fill="#000000" transform="matrix(1.00, 0.00, -0.00, -1.00, 779.3, 123.0)"> </text><text xml:space="preserve" font-family="Menlo-Regular,Menlo" font-size="34.9" fill="#000000" transform="matrix(1.00, 0.00, -0.00, -1.00, 800.4, 123.0)">ч</text><text xml:space="preserve" font-family="Menlo-Regular,Menlo" font-size="34.9" fill="#000000" transform="matrix(1.00, 0.00, -0.00, -1.00, 821.4, 123.0)">а</text><text xml:space="preserve" font-family="Menlo-Regular,Menlo" font-size="34.9" fill="#000000" transform="matrix(1.00, 0.00, -0.00, -1.00, 842.4, 123.0)">с</text><text xml:space="preserve" font-family="Menlo-Regular,Menlo" font-size="34.9" fill="#000000" transform="matrix(1.00, 0.00, -0.00, -1.00, 863.4, 123.0)">т</text><text xml:space="preserve" font-family="Menlo-Regular,Menlo" font-size="34.9" fill="#000000" transform="matrix(1.00, 0.00, -0.00, -1.00, 884.5, 123.0)">е</text><text xml:space="preserve" font-family="Menlo-Regular,Menlo" font-size="34.9" fill="#000000" transform="matrix(1.00, 0.00, -0.00, -1.00, 905.5, 123.0)">й</text><text xml:space="preserve" font-family="Menlo-Regular,Menlo" font-size="34.9" fill="#000000" transform="matrix(1.00, 0.00, -0.00, -1.00, 926.5, 123.0)"> </text><text xml:space="preserve" font-family="Menlo-Regular,Menlo" font-size="34.9" fill="#000000" transform="matrix(1.00, 0.00, -0.00, -1.00, 127.5, 83.0)">R</text><text xml:space="preserve" font-family="Menlo-Regular,Menlo" font-size="34.9" fill="#000000" transform="matrix(1.00, 0.00, -0.00, -1.00, 148.5, 83.0)">a</text><text xml:space="preserve" font-family="Menlo-Regular,Menlo" font-size="34.9" fill="#000000" transform="matrix(1.00, 0.00, -0.00, -1.00, 169.6, 83.0)">i</text><text xml:space="preserve" font-family="Menlo-Regular,Menlo" font-size="34.9" fill="#000000" transform="matrix(1.00, 0.00, -0.00, -1.00, 190.6, 83.0)">l</text><text xml:space="preserve" font-family="Menlo-Regular,Menlo" font-size="34.9" fill="#000000" transform="matrix(1.00, 0.00, -0.00, -1.00, 211.6, 83.0)">s</text><text xml:space="preserve" font-family="Menlo-Regular,Menlo" font-size="34.9" fill="#000000" transform="matrix(1.00, 0.00, -0.00, -1.00, 232.6, 83.0)"> </text><text xml:space="preserve" font-family="Menlo-Regular,Menlo" font-size="34.9" fill="#000000" transform="matrix(1.00, 0.00, -0.00, -1.00, 253.7, 83.0)">E</text><text xml:space="preserve" font-family="Menlo-Regular,Menlo" font-size="34.9" fill="#000000" transform="matrix(1.00, 0.00, -0.00, -1.00, 274.7, 83.0)">n</text><text xml:space="preserve" font-family="Menlo-Regular,Menlo" font-size="34.9" fill="#000000" transform="matrix(1.00, 0.00, -0.00, -1.00, 295.7, 83.0)">g</text><text xml:space="preserve" font-family="Menlo-Regular,Menlo" font-size="34.9" fill="#000000" transform="matrix(1.00, 0.00, -0.00, -1.00, 316.7, 83.0)">i</text><text xml:space="preserve" font-family="Menlo-Regular,Menlo" font-size="34.9" fill="#000000" transform="matrix(1.00, 0.00, -0.00, -1.00, 337.8, 83.0)">n</text><text xml:space="preserve" font-family="Menlo-Regular,Menlo" font-size="34.9" fill="#000000" transform="matrix(1.00, 0.00, -0.00, -1.00, 358.8, 83.0)">e</text><text xml:space="preserve" font-family="Menlo-Regular,Menlo" font-size="34.9" fill="#000000" transform="matrix(1.00, 0.00, -0.00, -1.00, 379.8, 83.0)">s</text><text xml:space="preserve" font-family="Menlo-Regular,Menlo" font-size="34.9" fill="#000000" transform="matrix(1.00, 0.00, -0.00, -1.00, 400.9, 83.0)">.</text></g></svg>