<?xml version="1.0" encoding="UTF-8" standalone="no"?><svg xmlns="http://www.w3.org/2000/svg" xmlns:xlink="http://www.w3.org/1999/xlink" clip-rule="evenodd" stroke-miterlimit="10" viewBox="0 0 1024 768"><desc>SVG generated by Keynote</desc><defs></defs><g transform="matrix(1.00, 0.00, -0.00, -1.00, 0.0, 768.0)"><path d="M 0.0 768.0 L 1024.0 768.0 L 1024.0 0.0 L 0.0 0.0 Z M 0.0 768.0 " fill="#DCDDE0"></path><text xml:space="preserve" font-family="Menlo-Regular,Menlo" font-size="80.0" fill="#000000" transform="matrix(1.00, 0.00, -0.00, -1.00, 271.2, 402.9)">С</text><text xml:space="preserve" font-family="Menlo-Regular,Menlo" font-size="80.0" fill="#000000" transform="matrix(1.00, 0.00, -0.00, -1.00, 319.4, 402.9)">п</text><text xml:space="preserve" font-family="Menlo-Regular,Menlo" font-size="80.0" fill="#000000" transform="matrix(1.00, 0.00, -0.00, -1.00, 367.5, 402.9)">а</text><text xml:space="preserve" font-family="Menlo-Regular,Menlo" font-size="80.0" fill="#000000" transform="matrix(1.00, 0.00, -0.00, -1.00, 415.7, 402.9)">с</text><text xml:space="preserve" font-family="Menlo-Regular,Menlo" font-size="80.0" fill="#000000" transform="matrix(1.00, 0.00, -0.00, -1.00, 463.9, 402.9)">и</text><text xml:space="preserve" font-family="Menlo-Regular,Menlo" font-size="80.0" fill="#000000" transform="matrix(1.00, 0.00, -0.00, -1.00, 512.0, 402.9)">б</text><text xml:space="preserve" font-family="Menlo-Regular,Menlo" font-size="80.0" fill="#000000" transform="matrix(1.00, 0.00, -0.00, -1.00, 560.2, 402.9)">о</text><text xml:space="preserve" font-family="Menlo-Regular,Menlo" font-size="80.0" fill="#000000" transform="matrix(1.00, 0.00, -0.00, -1.00, 608.4, 402.9)"> </text><text xml:space="preserve" font-family="Menlo-Regular,Menlo" font-size="80.0" fill="#000000" transform="matrix(1.00, 0.00, -0.00, -1.00, 656.6, 402.9)">з</text><text xml:space="preserve" font-family="Menlo-Regular,Menlo" font-size="80.0" fill="#000000" transform="matrix(1.00, 0.00, -0.00, -1.00, 704.7, 402.9)">а</text><text xml:space="preserve" font-family="Menlo-Regular,Menlo" font-size="80.0" fill="#000000" transform="matrix(1.00, 0.00, -0.00, -1.00, 752.9, 402.9)"> </text><text xml:space="preserve" font-family="Menlo-Regular,Menlo" font-size="80.0" fill="#000000" transform="matrix(1.00, 0.00, -0.00, -1.00, 295.3, 309.9)">в</text><text xml:space="preserve" font-family="Menlo-Regular,Menlo" font-size="80.0" fill="#000000" transform="matrix(1.00, 0.00, -0.00, -1.00, 343.4, 309.9)">н</text><text xml:space="preserve" font-family="Menlo-Regular,Menlo" font-size="80.0" fill="#000000" transform="matrix(1.00, 0.00, -0.00, -1.00, 391.6, 309.9)">и</text><text xml:space="preserve" font-family="Menlo-Regular,Menlo" font-size="80.0" fill="#000000" transform="matrix(1.00, 0.00, -0.00, -1.00, 439.8, 309.9)">м</text><text xml:space="preserve" font-family="Menlo-Regular,Menlo" font-size="80.0" fill="#000000" transform="matrix(1.00, 0.00, -0.00, -1.00, 487.9, 309.9)">а</text><text xml:space="preserve" font-family="Menlo-Regular,Menlo" font-size="80.0" fill="#000000" transform="matrix(1.00, 0.00, -0.00, -1.00, 536.1, 309.9)">н</text><text xml:space="preserve" font-family="Menlo-Regular,Menlo" font-size="80.0" fill="#000000" transform="matrix(1.00, 0.00, -0.00, -1.00, 584.3, 309.9)">и</text><text xml:space="preserve" font-family="Menlo-Regular,Menlo" font-size="80.0" fill="#000000" transform="matrix(1.00, 0.00, -0.00, -1.00, 632.5, 309.9)">е</text><text xml:space="preserve" font-family="Menlo-Regular,Menlo" font-size="80.0" fill="#000000" transform="matrix(1.00, 0.00, -0.00, -1.00, 680.6, 309.9)">!</text></g></svg>