<?xml version="1.0" encoding="UTF-8" standalone="no"?><svg xmlns="http://www.w3.org/2000/svg" xmlns:xlink="http://www.w3.org/1999/xlink" clip-rule="evenodd" stroke-miterlimit="10" viewBox="0 0 1024 768"><desc>SVG generated by Keynote</desc><defs></defs><g transform="matrix(1.00, 0.00, -0.00, -1.00, 0.0, 768.0)"><path d="M 0.0 768.0 L 1024.0 768.0 L 1024.0 0.0 L 0.0 0.0 Z M 0.0 768.0 " fill="#DCDDE0"></path><text xml:space="preserve" font-family="Menlo-Regular,Menlo" font-size="69.6" fill="#000000" transform="matrix(1.00, 0.00, -0.00, -1.00, 386.3, 664.4)">П</text><text xml:space="preserve" font-family="Menlo-Regular,Menlo" font-size="69.6" fill="#000000" transform="matrix(1.00, 0.00, -0.00, -1.00, 428.2, 664.4)">л</text><text xml:space="preserve" font-family="Menlo-Regular,Menlo" font-size="69.6" fill="#000000" transform="matrix(1.00, 0.00, -0.00, -1.00, 470.1, 664.4)">а</text><text xml:space="preserve" font-family="Menlo-Regular,Menlo" font-size="69.6" fill="#000000" transform="matrix(1.00, 0.00, -0.00, -1.00, 512.0, 664.4)">г</text><text xml:space="preserve" font-family="Menlo-Regular,Menlo" font-size="69.6" fill="#000000" transform="matrix(1.00, 0.00, -0.00, -1.00, 553.9, 664.4)">и</text><text xml:space="preserve" font-family="Menlo-Regular,Menlo" font-size="69.6" fill="#000000" transform="matrix(1.00, 0.00, -0.00, -1.00, 595.8, 664.4)">н</text><text xml:space="preserve" font-family="Menlo-Regular,Menlo" font-size="69.6" fill="#000000" transform="matrix(1.00, 0.00, -0.00, -1.00, 637.7, 664.4)"> </text><text xml:space="preserve" font-family="Menlo-Regular,Menlo" font-size="69.6" fill="#000000" transform="matrix(1.00, 0.00, -0.00, -1.00, 218.7, 583.4)">A</text><text xml:space="preserve" font-family="Menlo-Regular,Menlo" font-size="69.6" fill="#000000" transform="matrix(1.00, 0.00, -0.00, -1.00, 260.6, 583.4)">u</text><text xml:space="preserve" font-family="Menlo-Regular,Menlo" font-size="69.6" fill="#000000" transform="matrix(1.00, 0.00, -0.00, -1.00, 302.5, 583.4)">t</text><text xml:space="preserve" font-family="Menlo-Regular,Menlo" font-size="69.6" fill="#000000" transform="matrix(1.00, 0.00, -0.00, -1.00, 344.4, 583.4)">h</text><text xml:space="preserve" font-family="Menlo-Regular,Menlo" font-size="69.6" fill="#000000" transform="matrix(1.00, 0.00, -0.00, -1.00, 386.3, 583.4)">e</text><text xml:space="preserve" font-family="Menlo-Regular,Menlo" font-size="69.6" fill="#000000" transform="matrix(1.00, 0.00, -0.00, -1.00, 428.2, 583.4)">n</text><text xml:space="preserve" font-family="Menlo-Regular,Menlo" font-size="69.6" fill="#000000" transform="matrix(1.00, 0.00, -0.00, -1.00, 470.1, 583.4)">t</text><text xml:space="preserve" font-family="Menlo-Regular,Menlo" font-size="69.6" fill="#000000" transform="matrix(1.00, 0.00, -0.00, -1.00, 512.0, 583.4)">i</text><text xml:space="preserve" font-family="Menlo-Regular,Menlo" font-size="69.6" fill="#000000" transform="matrix(1.00, 0.00, -0.00, -1.00, 554.0, 583.4)">c</text><text xml:space="preserve" font-family="Menlo-Regular,Menlo" font-size="69.6" fill="#000000" transform="matrix(1.00, 0.00, -0.00, -1.00, 595.9, 583.4)">a</text><text xml:space="preserve" font-family="Menlo-Regular,Menlo" font-size="69.6" fill="#000000" transform="matrix(1.00, 0.00, -0.00, -1.00, 637.8, 583.4)">t</text><text xml:space="preserve" font-family="Menlo-Regular,Menlo" font-size="69.6" fill="#000000" transform="matrix(1.00, 0.00, -0.00, -1.00, 679.7, 583.4)">i</text><text xml:space="preserve" font-family="Menlo-Regular,Menlo" font-size="69.6" fill="#000000" transform="matrix(1.00, 0.00, -0.00, -1.00, 721.6, 583.4)">o</text><text xml:space="preserve" font-family="Menlo-Regular,Menlo" font-size="69.6" fill="#000000" transform="matrix(1.00, 0.00, -0.00, -1.00, 763.5, 583.4)">n</text><g><clipPath id="clip0x6180006a4f20"><path d="M 137.0 565.0 L 912.0 565.0 L 912.0 2.0 L 137.0 2.0 Z M 137.0 565.3 "></path></clipPath><g clip-path="url(#clip0x6180006a4f20)"><image xlink:href="../../25CD0328-280C-42CC-B85B-2946D88B6CB4/assets/7878ECEADC7F1B3A11B6BFE986D2FA20.png" width="1110.00" height="829.00" transform="matrix(0.68, 0.00, -0.00, -0.68, 134.6, 565.3)"></image></g></g></g></svg>