<?xml version="1.0" encoding="UTF-8" standalone="no"?><svg xmlns="http://www.w3.org/2000/svg" xmlns:xlink="http://www.w3.org/1999/xlink" clip-rule="evenodd" stroke-miterlimit="10" viewBox="0 0 1024 768"><desc>SVG generated by Keynote</desc><defs></defs><g transform="matrix(1.00, 0.00, -0.00, -1.00, 0.0, 768.0)"><path d="M 0.0 768.0 L 1024.0 768.0 L 1024.0 0.0 L 0.0 0.0 Z M 0.0 768.0 " fill="#DCDDE0"></path><g><clipPath id="clip0x600000ebe480"><path d="M 127.0 514.0 L 897.0 514.0 L 897.0 48.0 L 127.0 48.0 Z M 127.0 514.0 "></path></clipPath><g clip-path="url(#clip0x600000ebe480)"><image xlink:href="1FD23115A708CDD3055C733B90F9043A.png" width="1200.00" height="675.00" transform="matrix(0.69, 0.00, -0.00, -0.69, 97.8, 514.0)"></image></g></g><text xml:space="preserve" font-family="Menlo-Regular,Menlo" font-size="80.0" fill="#000000" transform="matrix(1.00, 0.00, -0.00, -1.00, 150.8, 665.9)">o</text><text xml:space="preserve" font-family="Menlo-Regular,Menlo" font-size="80.0" fill="#000000" transform="matrix(1.00, 0.00, -0.00, -1.00, 198.9, 665.9)">c</text><text xml:space="preserve" font-family="Menlo-Regular,Menlo" font-size="80.0" fill="#000000" transform="matrix(1.00, 0.00, -0.00, -1.00, 247.1, 665.9)">t</text><text xml:space="preserve" font-family="Menlo-Regular,Menlo" font-size="80.0" fill="#000000" transform="matrix(1.00, 0.00, -0.00, -1.00, 295.3, 665.9)">o</text><text xml:space="preserve" font-family="Menlo-Regular,Menlo" font-size="80.0" fill="#000000" transform="matrix(1.00, 0.00, -0.00, -1.00, 343.5, 665.9)">s</text><text xml:space="preserve" font-family="Menlo-Regular,Menlo" font-size="80.0" fill="#000000" transform="matrix(1.00, 0.00, -0.00, -1.00, 391.6, 665.9)">h</text><text xml:space="preserve" font-family="Menlo-Regular,Menlo" font-size="80.0" fill="#000000" transform="matrix(1.00, 0.00, -0.00, -1.00, 439.8, 665.9)">e</text><text xml:space="preserve" font-family="Menlo-Regular,Menlo" font-size="80.0" fill="#000000" transform="matrix(1.00, 0.00, -0.00, -1.00, 488.0, 665.9)">l</text><text xml:space="preserve" font-family="Menlo-Regular,Menlo" font-size="80.0" fill="#000000" transform="matrix(1.00, 0.00, -0.00, -1.00, 536.1, 665.9)">l</text><text xml:space="preserve" font-family="Menlo-Regular,Menlo" font-size="80.0" fill="#000000" transform="matrix(1.00, 0.00, -0.00, -1.00, 584.3, 665.9)">-</text><text xml:space="preserve" font-family="Menlo-Regular,Menlo" font-size="80.0" fill="#000000" transform="matrix(1.00, 0.00, -0.00, -1.00, 632.5, 665.9)">b</text><text xml:space="preserve" font-family="Menlo-Regular,Menlo" font-size="80.0" fill="#000000" transform="matrix(1.00, 0.00, -0.00, -1.00, 680.7, 665.9)">a</text><text xml:space="preserve" font-family="Menlo-Regular,Menlo" font-size="80.0" fill="#000000" transform="matrix(1.00, 0.00, -0.00, -1.00, 728.8, 665.9)">s</text><text xml:space="preserve" font-family="Menlo-Regular,Menlo" font-size="80.0" fill="#000000" transform="matrix(1.00, 0.00, -0.00, -1.00, 777.0, 665.9)">i</text><text xml:space="preserve" font-family="Menlo-Regular,Menlo" font-size="80.0" fill="#000000" transform="matrix(1.00, 0.00, -0.00, -1.00, 825.2, 665.9)">c</text><text xml:space="preserve" font-family="Menlo-Regular,Menlo" font-size="32.0" fill="#000000" transform="matrix(1.00, 0.00, -0.00, -1.00, 117.1, 603.5)">о</text><text xml:space="preserve" font-family="Menlo-Regular,Menlo" font-size="32.0" fill="#000000" transform="matrix(1.00, 0.00, -0.00, -1.00, 136.3, 603.5)">б</text><text xml:space="preserve" font-family="Menlo-Regular,Menlo" font-size="32.0" fill="#000000" transform="matrix(1.00, 0.00, -0.00, -1.00, 155.6, 603.5)">щ</text><text xml:space="preserve" font-family="Menlo-Regular,Menlo" font-size="32.0" fill="#000000" transform="matrix(1.00, 0.00, -0.00, -1.00, 174.9, 603.5)">а</text><text xml:space="preserve" font-family="Menlo-Regular,Menlo" font-size="32.0" fill="#000000" transform="matrix(1.00, 0.00, -0.00, -1.00, 194.1, 603.5)">я</text><text xml:space="preserve" font-family="Menlo-Regular,Menlo" font-size="32.0" fill="#000000" transform="matrix(1.00, 0.00, -0.00, -1.00, 213.4, 603.5)"> </text><text xml:space="preserve" font-family="Menlo-Regular,Menlo" font-size="32.0" fill="#000000" transform="matrix(1.00, 0.00, -0.00, -1.00, 232.7, 603.5)">с</text><text xml:space="preserve" font-family="Menlo-Regular,Menlo" font-size="32.0" fill="#000000" transform="matrix(1.00, 0.00, -0.00, -1.00, 251.9, 603.5)">х</text><text xml:space="preserve" font-family="Menlo-Regular,Menlo" font-size="32.0" fill="#000000" transform="matrix(1.00, 0.00, -0.00, -1.00, 271.2, 603.5)">е</text><text xml:space="preserve" font-family="Menlo-Regular,Menlo" font-size="32.0" fill="#000000" transform="matrix(1.00, 0.00, -0.00, -1.00, 290.5, 603.5)">м</text><text xml:space="preserve" font-family="Menlo-Regular,Menlo" font-size="32.0" fill="#000000" transform="matrix(1.00, 0.00, -0.00, -1.00, 309.7, 603.5)">а</text><text xml:space="preserve" font-family="Menlo-Regular,Menlo" font-size="32.0" fill="#000000" transform="matrix(1.00, 0.00, -0.00, -1.00, 329.0, 603.5)"> </text><text xml:space="preserve" font-family="Menlo-Regular,Menlo" font-size="32.0" fill="#000000" transform="matrix(1.00, 0.00, -0.00, -1.00, 348.3, 603.5)">к</text><text xml:space="preserve" font-family="Menlo-Regular,Menlo" font-size="32.0" fill="#000000" transform="matrix(1.00, 0.00, -0.00, -1.00, 367.5, 603.5)">о</text><text xml:space="preserve" font-family="Menlo-Regular,Menlo" font-size="32.0" fill="#000000" transform="matrix(1.00, 0.00, -0.00, -1.00, 386.8, 603.5)">н</text><text xml:space="preserve" font-family="Menlo-Regular,Menlo" font-size="32.0" fill="#000000" transform="matrix(1.00, 0.00, -0.00, -1.00, 406.1, 603.5)">с</text><text xml:space="preserve" font-family="Menlo-Regular,Menlo" font-size="32.0" fill="#000000" transform="matrix(1.00, 0.00, -0.00, -1.00, 425.4, 603.5)">т</text><text xml:space="preserve" font-family="Menlo-Regular,Menlo" font-size="32.0" fill="#000000" transform="matrix(1.00, 0.00, -0.00, -1.00, 444.6, 603.5)">р</text><text xml:space="preserve" font-family="Menlo-Regular,Menlo" font-size="32.0" fill="#000000" transform="matrix(1.00, 0.00, -0.00, -1.00, 463.9, 603.5)">у</text><text xml:space="preserve" font-family="Menlo-Regular,Menlo" font-size="32.0" fill="#000000" transform="matrix(1.00, 0.00, -0.00, -1.00, 483.2, 603.5)">к</text><text xml:space="preserve" font-family="Menlo-Regular,Menlo" font-size="32.0" fill="#000000" transform="matrix(1.00, 0.00, -0.00, -1.00, 502.4, 603.5)">т</text><text xml:space="preserve" font-family="Menlo-Regular,Menlo" font-size="32.0" fill="#000000" transform="matrix(1.00, 0.00, -0.00, -1.00, 521.7, 603.5)">о</text><text xml:space="preserve" font-family="Menlo-Regular,Menlo" font-size="32.0" fill="#000000" transform="matrix(1.00, 0.00, -0.00, -1.00, 541.0, 603.5)">р</text><text xml:space="preserve" font-family="Menlo-Regular,Menlo" font-size="32.0" fill="#000000" transform="matrix(1.00, 0.00, -0.00, -1.00, 560.2, 603.5)">а</text><text xml:space="preserve" font-family="Menlo-Regular,Menlo" font-size="32.0" fill="#000000" transform="matrix(1.00, 0.00, -0.00, -1.00, 579.5, 603.5)"> </text><text xml:space="preserve" font-family="Menlo-Regular,Menlo" font-size="32.0" fill="#000000" transform="matrix(1.00, 0.00, -0.00, -1.00, 598.8, 603.5)">д</text><text xml:space="preserve" font-family="Menlo-Regular,Menlo" font-size="32.0" fill="#000000" transform="matrix(1.00, 0.00, -0.00, -1.00, 618.0, 603.5)">л</text><text xml:space="preserve" font-family="Menlo-Regular,Menlo" font-size="32.0" fill="#000000" transform="matrix(1.00, 0.00, -0.00, -1.00, 637.3, 603.5)">я</text><text xml:space="preserve" font-family="Menlo-Regular,Menlo" font-size="32.0" fill="#000000" transform="matrix(1.00, 0.00, -0.00, -1.00, 656.6, 603.5)"> </text><text xml:space="preserve" font-family="Menlo-Regular,Menlo" font-size="32.0" fill="#000000" transform="matrix(1.00, 0.00, -0.00, -1.00, 675.9, 603.5)">а</text><text xml:space="preserve" font-family="Menlo-Regular,Menlo" font-size="32.0" fill="#000000" transform="matrix(1.00, 0.00, -0.00, -1.00, 695.1, 603.5)">б</text><text xml:space="preserve" font-family="Menlo-Regular,Menlo" font-size="32.0" fill="#000000" transform="matrix(1.00, 0.00, -0.00, -1.00, 714.4, 603.5)">с</text><text xml:space="preserve" font-family="Menlo-Regular,Menlo" font-size="32.0" fill="#000000" transform="matrix(1.00, 0.00, -0.00, -1.00, 733.7, 603.5)">т</text><text xml:space="preserve" font-family="Menlo-Regular,Menlo" font-size="32.0" fill="#000000" transform="matrix(1.00, 0.00, -0.00, -1.00, 752.9, 603.5)">р</text><text xml:space="preserve" font-family="Menlo-Regular,Menlo" font-size="32.0" fill="#000000" transform="matrix(1.00, 0.00, -0.00, -1.00, 772.2, 603.5)">а</text><text xml:space="preserve" font-family="Menlo-Regular,Menlo" font-size="32.0" fill="#000000" transform="matrix(1.00, 0.00, -0.00, -1.00, 791.5, 603.5)">к</text><text xml:space="preserve" font-family="Menlo-Regular,Menlo" font-size="32.0" fill="#000000" transform="matrix(1.00, 0.00, -0.00, -1.00, 810.7, 603.5)">т</text><text xml:space="preserve" font-family="Menlo-Regular,Menlo" font-size="32.0" fill="#000000" transform="matrix(1.00, 0.00, -0.00, -1.00, 830.0, 603.5)">н</text><text xml:space="preserve" font-family="Menlo-Regular,Menlo" font-size="32.0" fill="#000000" transform="matrix(1.00, 0.00, -0.00, -1.00, 849.3, 603.5)">о</text><text xml:space="preserve" font-family="Menlo-Regular,Menlo" font-size="32.0" fill="#000000" transform="matrix(1.00, 0.00, -0.00, -1.00, 868.5, 603.5)">г</text><text xml:space="preserve" font-family="Menlo-Regular,Menlo" font-size="32.0" fill="#000000" transform="matrix(1.00, 0.00, -0.00, -1.00, 887.8, 603.5)">о</text><text xml:space="preserve" font-family="Menlo-Regular,Menlo" font-size="32.0" fill="#000000" transform="matrix(1.00, 0.00, -0.00, -1.00, 907.1, 603.5)"> </text><text xml:space="preserve" font-family="Menlo-Regular,Menlo" font-size="32.0" fill="#000000" transform="matrix(1.00, 0.00, -0.00, -1.00, 396.4, 565.5)">у</text><text xml:space="preserve" font-family="Menlo-Regular,Menlo" font-size="32.0" fill="#000000" transform="matrix(1.00, 0.00, -0.00, -1.00, 415.7, 565.5)">н</text><text xml:space="preserve" font-family="Menlo-Regular,Menlo" font-size="32.0" fill="#000000" transform="matrix(1.00, 0.00, -0.00, -1.00, 434.9, 565.5)">и</text><text xml:space="preserve" font-family="Menlo-Regular,Menlo" font-size="32.0" fill="#000000" transform="matrix(1.00, 0.00, -0.00, -1.00, 454.2, 565.5)">в</text><text xml:space="preserve" font-family="Menlo-Regular,Menlo" font-size="32.0" fill="#000000" transform="matrix(1.00, 0.00, -0.00, -1.00, 473.5, 565.5)">е</text><text xml:space="preserve" font-family="Menlo-Regular,Menlo" font-size="32.0" fill="#000000" transform="matrix(1.00, 0.00, -0.00, -1.00, 492.8, 565.5)">р</text><text xml:space="preserve" font-family="Menlo-Regular,Menlo" font-size="32.0" fill="#000000" transform="matrix(1.00, 0.00, -0.00, -1.00, 512.0, 565.5)">с</text><text xml:space="preserve" font-family="Menlo-Regular,Menlo" font-size="32.0" fill="#000000" transform="matrix(1.00, 0.00, -0.00, -1.00, 531.3, 565.5)">и</text><text xml:space="preserve" font-family="Menlo-Regular,Menlo" font-size="32.0" fill="#000000" transform="matrix(1.00, 0.00, -0.00, -1.00, 550.6, 565.5)">т</text><text xml:space="preserve" font-family="Menlo-Regular,Menlo" font-size="32.0" fill="#000000" transform="matrix(1.00, 0.00, -0.00, -1.00, 569.8, 565.5)">е</text><text xml:space="preserve" font-family="Menlo-Regular,Menlo" font-size="32.0" fill="#000000" transform="matrix(1.00, 0.00, -0.00, -1.00, 589.1, 565.5)">т</text><text xml:space="preserve" font-family="Menlo-Regular,Menlo" font-size="32.0" fill="#000000" transform="matrix(1.00, 0.00, -0.00, -1.00, 608.4, 565.5)">а</text></g></svg>